<svg xmlns="http://www.w3.org/2000/svg" width="198" height="56" viewBox="0 0 198 56" fill="none"><g clip-path="url(#clip0_3980_14541)"><path d="M63.4439 42.5806C64.1911 42.5806 64.9644 42.5001 65.7637 42.3392C66.563 42.1782 67.4145 41.8977 68.318 41.4976C68.709 41.3323 68.9914 41.0931 69.1651 40.7799C69.3389 40.4667 69.3346 40.1014 69.1521 39.6838L68.8915 39.0967C68.8133 38.914 68.7025 38.7813 68.5591 38.6987C68.4158 38.616 68.2594 38.5682 68.09 38.5552C67.9206 38.5421 67.7424 38.5552 67.5557 38.5943C67.3689 38.6334 67.1929 38.6878 67.0278 38.7574C66.5065 38.9575 66.0026 39.1054 65.5161 39.201C65.0295 39.2967 64.5517 39.3446 64.0825 39.3446C62.397 39.3446 61.1329 38.8618 60.2901 37.8962C59.3952 36.9132 58.9478 35.3822 58.9478 33.3032C58.9478 31.172 59.3778 29.5996 60.238 28.5862C61.0981 27.5728 62.3796 27.0661 64.0825 27.0661C65.0295 27.0661 66.0157 27.2574 67.0409 27.6402C67.2233 27.7098 67.4079 27.7642 67.5947 27.8033C67.7815 27.8424 67.9597 27.8533 68.1291 27.8359C68.2985 27.8185 68.4527 27.762 68.5917 27.6663C68.7307 27.5706 68.8437 27.4227 68.9306 27.2227L69.1521 26.7138C69.2651 26.4441 69.302 26.2049 69.2629 25.9961C69.2238 25.7873 69.1369 25.6025 69.0022 25.4416C68.8676 25.2806 68.7047 25.1414 68.5135 25.024C68.3224 24.9066 68.1356 24.8087 67.9531 24.7304C67.7794 24.6521 67.5969 24.5825 67.4058 24.5216C67.2146 24.4607 67.0191 24.3999 66.8193 24.339C65.6551 23.9997 64.53 23.8301 63.4439 23.8301C60.7158 23.8301 58.6393 24.6347 57.2145 26.244C55.7896 27.8533 55.0771 30.2499 55.0771 33.4337C55.0771 36.5044 55.7852 38.7965 57.2014 40.3102C58.6176 41.8238 60.6984 42.5806 63.4439 42.5806ZM75.1396 42.3104C75.6588 42.3104 76.0482 42.1755 76.3078 41.9057C76.5674 41.6359 76.6971 41.2487 76.6971 40.7439V25.6667C76.6971 24.6224 76.178 24.1003 75.1396 24.1003H74.309C73.8071 24.1003 73.4221 24.2308 73.1538 24.4919C72.8856 24.753 72.7515 25.1446 72.7515 25.6667V40.7439C72.7515 41.2487 72.8856 41.6359 73.1538 41.9057C73.4221 42.1755 73.8071 42.3104 74.309 42.3104H75.1396ZM86.5729 42.3104C87.0942 42.3104 87.4852 42.1755 87.7459 41.9057C88.0065 41.6359 88.1368 41.2487 88.1368 40.7439V27.3507H91.5644C92.0857 27.3507 92.4767 27.2158 92.7374 26.946C92.998 26.6762 93.1283 26.289 93.1283 25.7842V25.6667C93.1283 24.6224 92.607 24.1003 91.5644 24.1003H80.7474C80.2434 24.1003 79.8568 24.2308 79.5875 24.4919C79.3181 24.753 79.1834 25.1446 79.1834 25.6667V25.7842C79.1834 26.289 79.3181 26.6762 79.5875 26.946C79.8568 27.2158 80.2434 27.3507 80.7474 27.3507H84.1749V40.7439C84.1749 41.2487 84.3096 41.6359 84.5789 41.9057C84.8483 42.1755 85.2349 42.3104 85.7388 42.3104H86.5729ZM106.593 42.2817C106.975 42.2991 107.349 42.1859 107.714 41.9423L108.132 41.6551C108.401 41.4723 108.588 41.2874 108.692 41.1003C108.797 40.9132 108.842 40.7261 108.829 40.539C108.816 40.3519 108.757 40.1604 108.653 39.9646C108.549 39.7688 107.725 38.6205 107.482 38.3159C107.073 37.7938 106.697 37.2803 106.354 36.7756C106.011 36.2708 105.7 35.7661 105.422 35.2613C106.56 34.6869 107.454 33.9255 108.102 32.9769C108.749 32.0283 109.073 30.9535 109.073 29.7526C109.073 28.8475 108.893 28.0447 108.532 27.3441C108.171 26.6436 107.682 26.0518 107.065 25.5688C106.447 25.0858 105.728 24.7203 104.906 24.4723C104.085 24.2243 103.218 24.1003 102.305 24.1003H97.1796C96.6753 24.1003 96.2884 24.2308 96.0189 24.4919C95.7494 24.753 95.6146 25.1446 95.6146 25.6667V40.7439C95.6146 41.2487 95.7494 41.6359 96.0189 41.9057C96.2884 42.1755 96.6753 42.3104 97.1796 42.3104H98.0272C98.5489 42.3104 98.9401 42.1755 99.2009 41.9057C99.4618 41.6359 99.5922 41.2487 99.5922 40.7439V36.41H101.809C101.87 36.41 101.905 36.4057 101.913 36.397C102.14 36.8321 102.411 37.3064 102.729 37.8199C103.046 38.3333 103.394 38.8555 103.772 39.3863C104.15 39.9172 104.546 40.4393 104.959 40.9528C105.372 41.4662 106.21 42.2643 106.593 42.2817ZM102.027 33.2864H99.6143V27.2343H102.131C102.584 27.2343 102.999 27.3019 103.377 27.437C103.755 27.572 104.081 27.7637 104.355 28.0121C104.629 28.2604 104.844 28.5654 105.001 28.9271C105.157 29.2887 105.236 29.6961 105.236 30.1493C105.236 30.5937 105.159 31.0076 105.007 31.391C104.855 31.7745 104.64 32.1078 104.362 32.391C104.083 32.6742 103.747 32.8942 103.351 33.0511C102.955 33.208 102.514 33.2864 102.027 33.2864ZM120.08 42.5806C122.663 42.5806 124.6 41.9737 125.891 40.7599C127.183 39.5462 127.828 37.7299 127.828 35.3111V25.6664C127.828 24.6223 127.307 24.1003 126.263 24.1003H125.428C124.924 24.1003 124.537 24.2308 124.267 24.4918C123.998 24.7528 123.863 25.1443 123.863 25.6664V35.011C123.863 36.5249 123.556 37.6255 122.943 38.3129C122.33 39.0002 121.406 39.3439 120.171 39.3439C119.441 39.3439 118.83 39.2569 118.338 39.0829C117.847 38.9089 117.453 38.6413 117.158 38.2802C116.862 37.9192 116.651 37.4646 116.525 36.9164C116.399 36.3683 116.336 35.7201 116.336 34.9718V25.6664C116.336 24.6223 115.814 24.1003 114.77 24.1003H113.936C113.431 24.1003 113.044 24.2308 112.775 24.4918C112.505 24.7528 112.37 25.1443 112.37 25.6664V35.3111C112.37 37.8604 113.088 39.7354 114.523 40.9361C115.81 42.0324 117.662 42.5806 120.08 42.5806ZM137.004 42.5806C138.046 42.5806 138.974 42.4566 139.786 42.2087C140.598 41.9608 141.284 41.5976 141.844 41.1192C142.404 40.6407 142.83 40.047 143.121 39.3381C143.411 38.6291 143.557 37.8136 143.557 36.8915C143.557 36.2217 143.451 35.6127 143.238 35.0647C143.025 34.5167 142.697 34.0252 142.254 33.5903C141.811 33.1553 141.251 32.7682 140.574 32.4289C139.896 32.0897 139.093 31.7939 138.164 31.5417C137.469 31.3329 136.898 31.1459 136.451 30.9806C136.003 30.8153 135.649 30.6413 135.389 30.4586C135.128 30.276 134.948 30.0694 134.848 29.8388C134.748 29.6083 134.698 29.3278 134.698 28.9972C134.698 28.3709 134.963 27.8925 135.493 27.5619C136.023 27.2313 136.787 27.0661 137.786 27.0661C138.741 27.0661 139.679 27.214 140.6 27.5097C140.773 27.5619 140.952 27.6119 141.134 27.6598C141.316 27.7076 141.492 27.7207 141.661 27.6989C141.831 27.6772 141.992 27.6098 142.144 27.4967C142.295 27.3836 142.428 27.1966 142.541 26.9356L142.749 26.4528C142.949 25.9831 142.925 25.6025 142.678 25.3111C142.43 25.0197 142.033 24.7739 141.486 24.5738C141.095 24.426 140.708 24.3042 140.326 24.2085C139.944 24.1128 139.577 24.0367 139.225 23.9801C138.874 23.9236 138.544 23.8844 138.235 23.8627C137.927 23.841 137.656 23.8301 137.421 23.8301C136.353 23.8301 135.404 23.9497 134.575 24.1889C133.745 24.4281 133.048 24.7804 132.484 25.2458C131.919 25.7112 131.489 26.2853 131.194 26.9682C130.899 27.6511 130.751 28.4362 130.751 29.3234C130.751 30.0802 130.86 30.7327 131.077 31.2807C131.294 31.8287 131.635 32.305 132.1 32.7095C132.564 33.114 133.159 33.4685 133.884 33.7729C134.609 34.0774 135.48 34.3645 136.496 34.6341C137.573 34.9299 138.361 35.2735 138.861 35.6649C139.36 36.0564 139.61 36.5609 139.61 37.1785C139.61 37.8571 139.356 38.3877 138.848 38.7705C138.34 39.1532 137.625 39.3446 136.705 39.3446C136.357 39.3446 136.029 39.3294 135.721 39.2989C135.413 39.2685 135.109 39.2228 134.809 39.1619C134.51 39.101 134.21 39.0227 133.91 38.927C133.611 38.8313 133.292 38.7183 132.953 38.5878C132.493 38.4138 132.1 38.3681 131.774 38.4508C131.448 38.5334 131.185 38.7878 130.986 39.2141L130.738 39.736C130.556 40.1188 130.536 40.4472 130.68 40.7212C130.823 40.9952 131.077 41.2192 131.442 41.3932C132.319 41.8281 133.242 42.1348 134.21 42.3131C135.178 42.4914 136.11 42.5806 137.004 42.5806ZM153.603 42.3104C155.7 42.3104 157.27 41.8774 158.314 41.0115C159.358 40.1456 159.88 38.8729 159.88 37.1933C159.88 36.6624 159.804 36.1642 159.652 35.6986C159.499 35.233 159.28 34.8131 158.993 34.4389C158.706 34.0647 158.351 33.7405 157.929 33.4664C157.507 33.1923 157.026 32.9812 156.487 32.8333V32.7028C156.913 32.5548 157.298 32.3568 157.642 32.1088C157.986 31.8608 158.281 31.5736 158.529 31.2472C158.777 30.9209 158.969 30.5554 159.104 30.1507C159.238 29.7461 159.306 29.3087 159.306 28.8388C159.306 28.0817 159.158 27.4072 158.862 26.8155C158.566 26.2237 158.147 25.7276 157.603 25.3273C157.059 24.927 156.402 24.6224 155.632 24.4136C154.862 24.2047 154.003 24.1003 153.055 24.1003H148.096C147.591 24.1003 147.204 24.2308 146.934 24.4919C146.665 24.753 146.53 25.1446 146.53 25.6667V40.7439C146.53 41.2487 146.665 41.6359 146.934 41.9057C147.204 42.1755 147.591 42.3104 148.096 42.3104H153.603ZM152.83 31.5572H150.475V26.8561H152.777C153.728 26.8561 154.464 27.0428 154.988 27.4161C155.511 27.7894 155.772 28.358 155.772 29.122C155.772 29.886 155.513 30.4829 154.994 30.9126C154.475 31.3424 153.754 31.5572 152.83 31.5572ZM153.026 39.3924H150.475V34.3131H153.091C154.08 34.3131 154.828 34.5301 155.335 34.9643C155.843 35.3984 156.097 36.0192 156.097 36.8267C156.097 37.7123 155.841 38.3614 155.329 38.7738C154.817 39.1862 154.049 39.3924 153.026 39.3924ZM165.511 42.3104C166.03 42.3104 166.42 42.1755 166.679 41.9057C166.939 41.6359 167.069 41.2487 167.069 40.7439V25.6667C167.069 24.6224 166.55 24.1003 165.511 24.1003H164.681C164.179 24.1003 163.794 24.2308 163.525 24.4919C163.257 24.753 163.123 25.1446 163.123 25.6667V40.7439C163.123 41.2487 163.257 41.6359 163.525 41.9057C163.794 42.1755 164.179 42.3104 164.681 42.3104H165.511ZM176.999 42.3104C177.52 42.3104 177.911 42.1755 178.171 41.9057C178.432 41.6359 178.562 41.2487 178.562 40.7439V27.3507H181.99C182.511 27.3507 182.902 27.2158 183.163 26.946C183.424 26.6762 183.554 26.289 183.554 25.7842V25.6667C183.554 24.6224 183.033 24.1003 181.99 24.1003H171.173C170.669 24.1003 170.282 24.2308 170.013 24.4919C169.744 24.753 169.609 25.1446 169.609 25.6667V25.7842C169.609 26.289 169.744 26.6762 170.013 26.946C170.282 27.2158 170.669 27.3507 171.173 27.3507H174.601V40.7439C174.601 41.2487 174.735 41.6359 175.005 41.9057C175.274 42.1755 175.661 42.3104 176.164 42.3104H176.999ZM191.379 42.5806C192.421 42.5806 193.348 42.4566 194.16 42.2087C194.972 41.9608 195.658 41.5976 196.218 41.1192C196.778 40.6407 197.204 40.047 197.495 39.3381C197.786 38.6291 197.931 37.8136 197.931 36.8915C197.931 36.2217 197.825 35.6127 197.612 35.0647C197.399 34.5167 197.071 34.0252 196.629 33.5903C196.186 33.1553 195.625 32.7682 194.948 32.4289C194.271 32.0897 193.467 31.7939 192.538 31.5417C191.843 31.3329 191.272 31.1459 190.825 30.9806C190.378 30.8153 190.024 30.6413 189.763 30.4586C189.503 30.276 189.322 30.0694 189.223 29.8388C189.123 29.6083 189.073 29.3278 189.073 28.9972C189.073 28.3709 189.338 27.8925 189.867 27.5619C190.397 27.2313 191.161 27.0661 192.16 27.0661C193.116 27.0661 194.053 27.214 194.974 27.5097C195.148 27.5619 195.326 27.6119 195.508 27.6598C195.691 27.7076 195.866 27.7207 196.036 27.6989C196.205 27.6772 196.366 27.6098 196.518 27.4967C196.67 27.3836 196.802 27.1966 196.915 26.9356L197.124 26.4528C197.323 25.9831 197.299 25.6025 197.052 25.3111C196.804 25.0197 196.407 24.7739 195.86 24.5738C195.469 24.426 195.083 24.3042 194.7 24.2085C194.318 24.1128 193.951 24.0367 193.6 23.9801C193.248 23.9236 192.918 23.8844 192.61 23.8627C192.301 23.841 192.03 23.8301 191.795 23.8301C190.727 23.8301 189.778 23.9497 188.949 24.1889C188.12 24.4281 187.423 24.7804 186.858 25.2458C186.294 25.7112 185.864 26.2853 185.568 26.9682C185.273 27.6511 185.125 28.4362 185.125 29.3234C185.125 30.0802 185.234 30.7327 185.451 31.2807C185.668 31.8287 186.009 32.305 186.474 32.7095C186.938 33.114 187.533 33.4685 188.259 33.7729C188.984 34.0774 189.854 34.3645 190.87 34.6341C191.947 34.9299 192.736 35.2735 193.235 35.6649C193.734 36.0564 193.984 36.5609 193.984 37.1785C193.984 37.8571 193.73 38.3877 193.222 38.7705C192.714 39.1532 192 39.3446 191.079 39.3446C190.732 39.3446 190.404 39.3294 190.095 39.2989C189.787 39.2685 189.483 39.2228 189.183 39.1619C188.884 39.101 188.584 39.0227 188.285 38.927C187.985 38.8313 187.666 38.7183 187.327 38.5878C186.867 38.4138 186.474 38.3681 186.148 38.4508C185.822 38.5334 185.56 38.7878 185.36 39.2141L185.112 39.736C184.93 40.1188 184.911 40.4472 185.054 40.7212C185.197 40.9952 185.451 41.2192 185.816 41.3932C186.693 41.8281 187.616 42.1348 188.584 42.3131C189.553 42.4914 190.484 42.5806 191.379 42.5806Z" fill="#1D1D1D"></path><g clip-path="url(#clip1_3980_14541)"><path d="M0.700597 39.2194C0.676846 39.1283 0.655073 39.0373 0.633301 38.9463C0.655073 39.0373 0.676846 39.1283 0.700597 39.2194Z" fill="#F8991D"></path><path d="M1.02737 40.3731C1.02737 40.3731 1.02539 40.3672 1.02539 40.3652C1.02539 40.3692 1.02737 40.3712 1.02737 40.3731Z" fill="#F8991D"></path><path d="M1.51406 41.7369C1.48041 41.6478 1.44478 41.5588 1.41113 41.4678C1.44478 41.5588 1.48041 41.6478 1.51406 41.7369Z" fill="#F8991D"></path><path d="M1.97329 42.8268C1.9436 42.7615 1.91589 42.6962 1.88818 42.6309C1.91589 42.6962 1.9436 42.7615 1.97329 42.8268Z" fill="#F8991D"></path><path d="M0.387695 37.833C0.397592 37.8904 0.413426 37.9458 0.425302 38.0012C0.415406 37.9438 0.40353 37.8884 0.391654 37.833H0.389675H0.387695Z" fill="#F8991D"></path><path d="M3.20062 45.1447C3.15311 45.0636 3.10561 44.9844 3.05811 44.9053C3.10561 44.9864 3.15311 45.0636 3.20062 45.1447Z" fill="#F8991D"></path><path d="M3.82212 46.1118C3.81222 46.0999 3.8043 46.0861 3.79639 46.0742C3.80628 46.0861 3.81222 46.0999 3.82212 46.1118Z" fill="#F8991D"></path><path d="M2.57293 44.0402C2.54522 43.9867 2.51355 43.9353 2.48584 43.8799C2.51355 43.9333 2.54324 43.9867 2.57293 44.0402Z" fill="#F8991D"></path><path d="M0.407473 29.4561C0.346114 29.7786 0.290694 30.1031 0.241211 30.4296C0.290694 30.1012 0.350073 29.7766 0.413411 29.4541C0.411432 29.4541 0.409452 29.4541 0.407473 29.4541V29.4561Z" fill="#FFCD05"></path><path d="M4.51104 47.0621C4.27352 46.7515 4.04392 46.4348 3.82422 46.1123C4.04392 46.4348 4.27352 46.7515 4.51104 47.0621Z" fill="#FFCD05"></path><path d="M3.79646 46.0746C3.59061 45.7698 3.39268 45.4592 3.20068 45.1445C3.39268 45.4592 3.59061 45.7698 3.79646 46.0746Z" fill="#FFCD05"></path><path d="M1.41133 41.4654C1.27476 41.1052 1.1461 40.7411 1.02734 40.3711C1.1461 40.7411 1.27476 41.1032 1.41133 41.4654Z" fill="#FFCD05"></path><path d="M3.05817 44.9047C2.89191 44.6218 2.72961 44.3329 2.57324 44.042C2.72961 44.3329 2.89191 44.6218 3.05817 44.9047Z" fill="#FFCD05"></path><path d="M1.88825 42.6337C1.75762 42.3389 1.63292 42.0401 1.51416 41.7373C1.63292 42.0401 1.75762 42.3389 1.88825 42.6337Z" fill="#FFCD05"></path><path d="M0.633121 38.9468C0.555927 38.6342 0.486652 38.3195 0.425293 38.0029C0.488631 38.3195 0.557907 38.6342 0.633121 38.9468Z" fill="#FFCD05"></path><path d="M1.02529 40.3655C0.904553 39.9875 0.799649 39.6056 0.700684 39.2197C0.799649 39.6056 0.906532 39.9875 1.02529 40.3655Z" fill="#FFCD05"></path><path d="M2.48774 43.8799C2.30762 43.5356 2.13542 43.1833 1.9751 42.8271C2.13542 43.1833 2.30762 43.5336 2.48774 43.8799Z" fill="#FFCD05"></path><path d="M0.231445 30.489C0.233425 30.4692 0.239363 30.4514 0.241342 30.4316C0.239363 30.4514 0.233425 30.4692 0.231445 30.489Z" fill="#F8991D"></path><path d="M43.3804 27.96C43.4279 28.1381 43.4754 28.3181 43.5189 28.4962C43.4754 28.3161 43.4299 28.1381 43.3804 27.96Z" fill="#F8991D"></path><path d="M42.3931 25.0908C42.4663 25.265 42.5395 25.443 42.6088 25.6211C42.5376 25.443 42.4663 25.2669 42.3931 25.0908Z" fill="#F8991D"></path><path d="M43.7251 29.4404C43.7548 29.5968 43.7845 29.7511 43.8102 29.9074C43.7825 29.7511 43.7548 29.5968 43.7251 29.4404Z" fill="#F8991D"></path><path d="M42.9053 26.415C43.0656 26.8721 43.2101 27.3372 43.3407 27.8081C43.2101 27.3372 43.0656 26.8721 42.9053 26.415Z" fill="#F8991D"></path><path d="M43.5703 28.7119C43.6079 28.8722 43.6435 29.0345 43.6772 29.1967C43.6435 29.0345 43.6079 28.8742 43.5703 28.7119Z" fill="#F8991D"></path><path d="M43.0995 40.3975C43.056 40.538 43.0065 40.6765 42.959 40.817C43.0065 40.6765 43.054 40.538 43.0995 40.3975Z" fill="#F8991D"></path><path d="M43.3805 39.4453C43.3429 39.5858 43.3013 39.7263 43.2598 39.8648C43.3013 39.7243 43.3409 39.5858 43.3805 39.4453Z" fill="#F8991D"></path><path d="M43.8555 30.165C43.8812 30.3214 43.903 30.4757 43.9247 30.634C43.903 30.4757 43.8812 30.3214 43.8555 30.165Z" fill="#F8991D"></path><path d="M43.6161 38.4736C43.5844 38.6141 43.5507 38.7546 43.5171 38.8931C43.5507 38.7526 43.5844 38.6141 43.6161 38.4736Z" fill="#F8991D"></path><path d="M42.6602 25.75C42.7433 25.9677 42.8244 26.1853 42.9016 26.407C42.8244 26.1853 42.7433 25.9677 42.6602 25.75Z" fill="#F8991D"></path><path d="M32.8247 38.5216C32.8247 38.5216 32.8287 38.5157 32.8306 38.5117C32.8287 38.5157 32.8267 38.5177 32.8247 38.5216Z" fill="#F8991D"></path><path d="M32.9774 29.2385C32.912 29.0802 32.8408 28.9259 32.7695 28.7695C32.8428 28.9239 32.914 29.0802 32.9774 29.2385Z" fill="#F8991D"></path><path d="M33.1138 37.8147C33.1435 37.7336 33.1712 37.6485 33.1989 37.5674C33.1712 37.6485 33.1435 37.7336 33.1138 37.8147Z" fill="#F8991D"></path><path d="M42.7393 41.4458C42.7532 41.4102 42.765 41.3706 42.7789 41.333C42.765 41.3706 42.7492 41.4082 42.7354 41.4478C42.7354 41.4478 42.7393 41.4478 42.7413 41.4458H42.7393Z" fill="#F8991D"></path><path d="M41.6387 23.4922H41.6348C41.6585 23.5397 41.6842 23.5852 41.71 23.6327C41.6862 23.5872 41.6645 23.5377 41.6387 23.4922Z" fill="#F8991D"></path><path d="M41.7891 23.793C41.8682 23.9513 41.9474 24.1096 42.0246 24.2718C41.9474 24.1096 41.8702 23.9513 41.7891 23.793Z" fill="#F8991D"></path><path d="M32.6329 28.4752C32.5498 28.307 32.4587 28.1428 32.3677 27.9785C32.4587 28.1428 32.5517 28.307 32.6329 28.4752Z" fill="#F8991D"></path><path d="M42.1021 24.4404C42.1773 24.6007 42.2505 24.765 42.3218 24.9292C42.2505 24.765 42.1773 24.6007 42.1021 24.4404Z" fill="#F8991D"></path><path d="M32.2349 27.7386C32.0944 27.5011 31.9459 27.2656 31.7896 27.0381C31.9459 27.2656 32.0944 27.5011 32.2349 27.7386Z" fill="#F8991D"></path><path d="M33.7216 36.9836C36.3105 36.9836 38.652 38.0284 40.3542 39.7144C41.3637 39.0554 42.478 38.5469 43.6696 38.2223C43.9724 36.762 44.1387 35.2522 44.1387 33.7028C44.1387 32.7252 44.0734 31.7635 43.9487 30.8197C43.6102 30.879 43.2579 30.9107 42.9016 30.9107C40.564 30.9107 38.5412 29.5789 37.5397 27.6338L37.5357 27.6358C36.4273 28.8329 34.921 29.6581 33.2248 29.8936C33.1872 29.7847 33.1416 29.6779 33.1021 29.571C33.585 30.8573 33.8542 32.2464 33.8542 33.7028C33.8542 34.8841 33.678 36.0219 33.3534 37.0984C33.3633 37.0628 33.3772 37.0271 33.3891 36.9915C33.4999 36.9856 33.6107 36.9856 33.7216 36.9856V36.9836Z" fill="#F8991D"></path><path d="M19.7969 22.1406C19.7474 22.1505 19.6979 22.1604 19.6504 22.1703C19.6979 22.1604 19.7474 22.1505 19.7969 22.1406Z" fill="#F8991D"></path><path d="M18.8749 22.3604C18.8412 22.3702 18.8076 22.3801 18.7739 22.39C18.8076 22.3801 18.8412 22.3702 18.8749 22.3604Z" fill="#F8991D"></path><path d="M20.5731 22.0161C21.062 21.9548 21.5627 21.9211 22.0694 21.9211C25.0424 21.9211 27.758 23.0233 29.8323 24.8379C29.856 24.6202 29.8679 24.3966 29.8679 24.171C29.8679 22.7146 29.3513 21.3789 28.4923 20.3381C28.1439 20.4746 27.7639 20.5538 27.3641 20.5538C25.9014 20.5538 24.6762 19.5347 24.3595 18.1674C24.1853 18.1515 24.0111 18.1396 23.835 18.1396C22.2891 18.1396 20.8799 18.7234 19.811 19.6792C20.3158 20.3223 20.6226 21.1296 20.6324 22.0062C20.6127 22.0082 20.5929 22.0141 20.5731 22.0161Z" fill="#F8991D"></path><path d="M40.0354 46.5137C40.0195 46.5374 40.0017 46.5592 39.9839 46.5829C40.0017 46.5592 40.0195 46.5374 40.0354 46.5137Z" fill="#FFCD05"></path><path d="M36.3502 50.5127C36.2473 50.5998 36.1464 50.6888 36.0435 50.7739C36.1484 50.6888 36.2493 50.6017 36.3502 50.5127Z" fill="#FFCD05"></path><path d="M28.1812 43.7707C28.389 43.6441 28.5928 43.5135 28.7908 43.377C28.5928 43.5155 28.387 43.6461 28.1812 43.7707Z" fill="#FFCD05"></path><path d="M26.7109 44.5313C26.9326 44.4363 27.1484 44.3334 27.3621 44.2266C27.1484 44.3334 26.9326 44.4363 26.7109 44.5313Z" fill="#FFCD05"></path><path d="M35.4314 51.2529C35.3503 51.3143 35.2731 51.3776 35.1899 51.4389C35.2711 51.3776 35.3503 51.3143 35.4314 51.2529Z" fill="#FFCD05"></path><path d="M39.3845 47.376C39.3093 47.471 39.2281 47.5659 39.1489 47.6609C39.2281 47.5659 39.3073 47.4729 39.3845 47.376Z" fill="#FFCD05"></path><path d="M32.8306 38.511C32.9315 38.2834 33.0245 38.0499 33.1136 37.8145C33.0245 38.0499 32.9315 38.2834 32.8306 38.511Z" fill="#FFCD05"></path><path d="M38.6937 48.2051C38.6007 48.3119 38.5037 48.4148 38.4106 48.5197C38.5057 48.4148 38.6007 48.3119 38.6937 48.2051Z" fill="#FFCD05"></path><path d="M37.9592 49.0049C37.8582 49.1098 37.7553 49.2127 37.6504 49.3175C37.7533 49.2146 37.8562 49.1098 37.9592 49.0049Z" fill="#FFCD05"></path><path d="M37.1814 49.7705C37.0765 49.8694 36.9716 49.9684 36.8647 50.0653C36.9716 49.9684 37.0765 49.8694 37.1814 49.7705Z" fill="#FFCD05"></path><path d="M40.8232 45.3262C40.7618 45.4231 40.7025 45.5241 40.6411 45.621C40.7045 45.5241 40.7638 45.4231 40.8232 45.3262Z" fill="#FFCD05"></path><path d="M33.1987 37.5657C33.2522 37.4094 33.3056 37.253 33.3531 37.0947C33.3056 37.253 33.2522 37.4094 33.1987 37.5657Z" fill="#FFCD05"></path><path d="M27.4707 44.1704C27.6785 44.0636 27.8844 43.9488 28.0843 43.8301C27.8824 43.9488 27.6766 44.0636 27.4707 44.1704Z" fill="#FFCD05"></path><path d="M24.4146 45.2452C24.6402 45.1997 24.8619 45.1482 25.0816 45.0889C24.8619 45.1463 24.6402 45.1997 24.4146 45.2452Z" fill="#FFCD05"></path><path d="M41.403 44.335C41.3377 44.4537 41.2724 44.5744 41.2051 44.6931C41.2724 44.5744 41.3377 44.4537 41.403 44.335Z" fill="#FFCD05"></path><path d="M25.2461 45.0456C25.4678 44.9842 25.6855 44.917 25.9012 44.8438C25.6855 44.917 25.4678 44.9842 25.2461 45.0456Z" fill="#FFCD05"></path><path d="M42.3099 42.5089C42.3099 42.5089 42.3099 42.5049 42.3079 42.5029C42.2763 42.5761 42.2426 42.6513 42.2109 42.7246C42.2426 42.6513 42.2802 42.5821 42.3119 42.5089H42.3099Z" fill="#FFCD05"></path><path d="M26.0278 44.7981C26.2396 44.7209 26.4534 44.6398 26.6612 44.5527C26.4554 44.6398 26.2416 44.7209 26.0278 44.7981Z" fill="#FFCD05"></path><path d="M37.8227 41.9389C35.7543 41.5966 33.9116 40.5834 32.53 39.127C32.6329 38.9291 32.7319 38.7253 32.8249 38.5195C31.9481 40.4706 30.5566 42.1388 28.8228 43.3537C28.9217 43.2845 29.0207 43.2152 29.1177 43.144C30.327 44.9942 31.0317 47.2065 31.0317 49.583C31.0317 51.2452 30.6873 52.8282 30.0658 54.2629C31.8907 53.5525 33.6008 52.6086 35.1526 51.4648C35.0556 50.8534 35.0041 50.2241 35.0041 49.583C35.0041 46.6643 36.067 43.9949 37.8247 41.9369L37.8227 41.9389Z" fill="#FFCD05"></path><path d="M41.9161 43.3496C41.8547 43.4763 41.7914 43.6029 41.728 43.7276C41.7914 43.6029 41.8547 43.4743 41.9161 43.3496Z" fill="#FFCD05"></path><path d="M37.8225 41.9383C38.5548 41.0815 39.4079 40.3315 40.354 39.7141C38.6518 38.0282 36.3083 36.9834 33.7213 36.9834C33.6105 36.9834 33.4996 36.9834 33.3888 36.9893C33.3789 37.025 33.3651 37.0606 33.3532 37.0962C33.3057 37.2545 33.2522 37.4108 33.1988 37.5671C33.1711 37.6483 33.1434 37.7334 33.1137 37.8145C33.0246 38.05 32.9316 38.2835 32.8306 38.511C32.8287 38.515 32.8267 38.517 32.8247 38.5209C32.7317 38.7267 32.6347 38.9305 32.5298 39.1284C33.9113 40.5828 35.7541 41.598 37.8225 41.9403V41.9383Z" fill="#F8991D"></path><path d="M37.8225 41.9383C38.5548 41.0815 39.4079 40.3315 40.354 39.7141C38.6518 38.0282 36.3083 36.9834 33.7213 36.9834C33.6105 36.9834 33.4996 36.9834 33.3888 36.9893C33.3789 37.025 33.3651 37.0606 33.3532 37.0962C33.3057 37.2545 33.2522 37.4108 33.1988 37.5671C33.1711 37.6483 33.1434 37.7334 33.1137 37.8145C33.0246 38.05 32.9316 38.2835 32.8306 38.511C32.8287 38.515 32.8267 38.517 32.8247 38.5209C32.7317 38.7267 32.6347 38.9305 32.5298 39.1284C33.9113 40.5828 35.7541 41.598 37.8225 41.9403V41.9383Z" fill="#F47A20"></path><path d="M10.9671 52.7646C10.7593 52.6439 10.5535 52.5192 10.3516 52.3926C10.5554 52.5192 10.7613 52.6439 10.9671 52.7646Z" fill="#F8991D"></path><path d="M20.3731 45.3598C20.3989 45.3637 20.4246 45.3637 20.4503 45.3677C17.2854 44.9323 14.5203 43.2424 12.6776 40.8145C12.7053 40.8521 12.731 40.8896 12.7627 40.9272C12.4717 41.9246 12.0165 42.8506 11.4346 43.6817C12.442 45.4171 13.022 47.4316 13.022 49.5845C13.022 50.9598 12.7864 52.2816 12.351 53.5104C13.6356 54.1417 14.9894 54.6463 16.4007 55.0202C16.0048 54.1278 15.7851 53.1384 15.7851 52.0956C15.7851 49.0344 17.6872 46.4145 20.3771 45.3598H20.3731Z" fill="#F8991D"></path><path d="M9.02159 51.492C8.72865 51.2783 8.44561 51.0567 8.16455 50.8291C8.44561 51.0567 8.73063 51.2783 9.02159 51.492Z" fill="#F8991D"></path><path d="M27.3618 44.2263C27.3994 44.2065 27.435 44.1887 27.4707 44.1709C27.435 44.1887 27.3974 44.2065 27.3618 44.2263Z" fill="#F8991D"></path><path d="M25.9014 44.8434C25.9429 44.8275 25.9845 44.8137 26.028 44.7979C25.9865 44.8117 25.9429 44.8275 25.9014 44.8434Z" fill="#F8991D"></path><path d="M7.47998 50.2511C7.6027 50.358 7.72937 50.4609 7.85605 50.5677C7.72937 50.4609 7.60468 50.352 7.47998 50.2412V50.2531V50.2511Z" fill="#F8991D"></path><path d="M24.2938 46.4067C24.2938 46.0169 24.3176 45.633 24.3631 45.257C24.3809 45.253 24.3987 45.2491 24.4145 45.2451C24.0207 45.3243 23.6189 45.3836 23.2111 45.4232C23.2408 45.4212 23.2705 45.4193 23.3002 45.4153C23.128 49.7865 20.3728 53.4908 16.5171 55.0501C18.2906 55.5091 20.1491 55.7605 22.0671 55.7605C24.8856 55.7605 27.5795 55.2321 30.0595 54.2704C30.0595 54.2665 30.0595 54.2645 30.0615 54.2625C29.7409 54.3872 29.4182 54.5079 29.0936 54.6167C26.2276 53 24.2938 49.9289 24.2938 46.4067Z" fill="#F8991D"></path><path d="M25.082 45.0904C25.1375 45.0746 25.1929 45.0608 25.2463 45.0449C25.1929 45.0608 25.1375 45.0746 25.082 45.0904Z" fill="#F8991D"></path><path d="M9.96199 52.1433C9.74823 52.0028 9.53842 51.8564 9.32861 51.71C9.53644 51.8564 9.74823 52.0028 9.96199 52.1433Z" fill="#F8991D"></path><path d="M22.6353 45.465C22.6907 45.463 22.7481 45.4571 22.8055 45.4551C22.7481 45.459 22.6927 45.463 22.6353 45.465Z" fill="#F8991D"></path><path d="M21.0063 45.4277C21.0875 45.4357 21.1687 45.4455 21.2498 45.4515C21.1687 45.4455 21.0875 45.4357 21.0063 45.4277Z" fill="#F8991D"></path><path d="M28.0845 43.8308C28.1161 43.8111 28.1478 43.7913 28.1795 43.7715C28.1478 43.7913 28.1161 43.8111 28.0845 43.8308Z" fill="#F8991D"></path><path d="M28.791 43.3772C28.8009 43.3693 28.8108 43.3614 28.8207 43.3555C28.8108 43.3634 28.8009 43.3713 28.791 43.3772Z" fill="#F8991D"></path><path d="M26.6592 44.553C26.677 44.5451 26.6948 44.5392 26.7106 44.5312C26.6948 44.5392 26.677 44.5451 26.6592 44.553Z" fill="#F8991D"></path><path d="M12.2319 40.1895C12.3349 40.3458 12.4417 40.4981 12.5526 40.6466C12.4437 40.4962 12.3349 40.3438 12.2319 40.1895Z" fill="#F8991D"></path><path d="M12.2616 53.4652C11.9528 53.3109 11.648 53.1506 11.3491 52.9824C11.65 53.1506 11.9528 53.3109 12.2616 53.4652Z" fill="#F8991D"></path><path d="M29.1155 43.1436C29.0186 43.2168 28.9216 43.284 28.8206 43.3533C28.8107 43.3612 28.8008 43.3691 28.7909 43.3751C28.591 43.5136 28.3872 43.6442 28.1813 43.7689C28.1496 43.7886 28.118 43.8084 28.0863 43.8282C27.8844 43.9469 27.6786 44.0617 27.4727 44.1686C27.4371 44.1864 27.3995 44.2042 27.3639 44.224C27.1501 44.3308 26.9343 44.4337 26.7127 44.5287C26.6968 44.5366 26.679 44.5426 26.6612 44.5505C26.4554 44.6375 26.2416 44.7187 26.0278 44.7959C25.9863 44.8097 25.9427 44.8255 25.9011 44.8414C25.6854 44.9146 25.4677 44.9819 25.246 45.0432C25.1926 45.059 25.1371 45.0729 25.0817 45.0887C24.862 45.1461 24.6403 45.1995 24.4147 45.245C24.3969 45.249 24.3791 45.2549 24.3632 45.2569C24.3197 45.6329 24.2939 46.0168 24.2939 46.4066C24.2939 49.9289 26.2277 53 29.0938 54.6166C29.4204 54.5078 29.741 54.3871 30.0617 54.2624C30.6832 52.8278 31.0276 51.2448 31.0276 49.5826C31.0276 47.206 30.3229 44.9937 29.1136 43.1436H29.1155Z" fill="#FFCD05"></path><path d="M29.1155 43.1436C29.0186 43.2168 28.9216 43.284 28.8206 43.3533C28.8107 43.3612 28.8008 43.3691 28.7909 43.3751C28.591 43.5136 28.3872 43.6442 28.1813 43.7689C28.1496 43.7886 28.118 43.8084 28.0863 43.8282C27.8844 43.9469 27.6786 44.0617 27.4727 44.1686C27.4371 44.1864 27.3995 44.2042 27.3639 44.224C27.1501 44.3308 26.9343 44.4337 26.7127 44.5287C26.6968 44.5366 26.679 44.5426 26.6612 44.5505C26.4554 44.6375 26.2416 44.7187 26.0278 44.7959C25.9863 44.8097 25.9427 44.8255 25.9011 44.8414C25.6854 44.9146 25.4677 44.9819 25.246 45.0432C25.1926 45.059 25.1371 45.0729 25.0817 45.0887C24.862 45.1461 24.6403 45.1995 24.4147 45.245C24.3969 45.249 24.3791 45.2549 24.3632 45.2569C24.3197 45.6329 24.2939 46.0168 24.2939 46.4066C24.2939 49.9289 26.2277 53 29.0938 54.6166C29.4204 54.5078 29.741 54.3871 30.0617 54.2624C30.6832 52.8278 31.0276 51.2448 31.0276 49.5826C31.0276 47.206 30.3229 44.9937 29.1136 43.1436H29.1155Z" fill="#F47A20"></path><path d="M7.79425 46.7783C6.91742 47.2018 5.96735 47.4966 4.96582 47.6292C5.72983 48.5672 6.57104 49.4398 7.47756 50.2393C7.46371 50.0196 7.45777 49.8039 7.45777 49.5823C7.45777 48.6147 7.57455 47.6767 7.79425 46.7764V46.7783Z" fill="#F8991D"></path><path d="M10.3518 52.3929C10.2212 52.3098 10.0906 52.2286 9.96191 52.1436C10.0906 52.2286 10.2212 52.3098 10.3518 52.3929Z" fill="#F8991D"></path><path d="M8.16473 50.8296C8.05983 50.7445 7.95888 50.6554 7.85596 50.5684C7.95888 50.6554 8.05983 50.7445 8.16473 50.8296Z" fill="#F8991D"></path><path d="M4.66117 47.2535C4.61169 47.1901 4.56022 47.1248 4.51074 47.0615C4.56022 47.1248 4.61169 47.1901 4.66117 47.2535Z" fill="#F8991D"></path><path d="M9.33026 51.7099C9.22733 51.6366 9.12441 51.5674 9.02148 51.4922C9.12243 51.5654 9.22733 51.6366 9.33026 51.7099Z" fill="#F8991D"></path><path d="M11.3473 52.9843C11.2187 52.9131 11.094 52.8379 10.9673 52.7646C11.094 52.8379 11.2187 52.9131 11.3473 52.9843Z" fill="#F8991D"></path><path d="M12.3488 53.5104C12.3191 53.4945 12.2895 53.4787 12.2598 53.4648C12.2895 53.4807 12.3172 53.4965 12.3469 53.5104H12.3488Z" fill="#F8991D"></path><path d="M11.4325 43.6816C10.5081 45.0015 9.2572 46.072 7.79449 46.7785C7.57479 47.6768 7.45801 48.6168 7.45801 49.5844C7.45801 49.804 7.46592 50.0217 7.4778 50.2414C7.6025 50.3522 7.72719 50.461 7.85387 50.5679C7.95679 50.6549 8.05774 50.744 8.16264 50.8291C8.4437 51.0566 8.72872 51.2782 9.01968 51.492C9.12063 51.5652 9.22553 51.6364 9.32846 51.7096C9.53628 51.8561 9.74807 52.0025 9.96184 52.143C10.0905 52.2281 10.2211 52.3092 10.3518 52.3923C10.5556 52.519 10.7615 52.6436 10.9673 52.7643C11.094 52.8375 11.2187 52.9127 11.3474 52.984C11.6482 53.1502 11.951 53.3125 12.2598 53.4668C12.2895 53.4826 12.3192 53.4985 12.3489 53.5103C12.7843 52.2815 13.0199 50.9597 13.0199 49.5844C13.0199 47.4334 12.4399 45.417 11.4325 43.6816Z" fill="#F8991D"></path><path d="M11.4325 43.6816C10.5081 45.0015 9.2572 46.072 7.79449 46.7785C7.57479 47.6768 7.45801 48.6168 7.45801 49.5844C7.45801 49.804 7.46592 50.0217 7.4778 50.2414C7.6025 50.3522 7.72719 50.461 7.85387 50.5679C7.95679 50.6549 8.05774 50.744 8.16264 50.8291C8.4437 51.0566 8.72872 51.2782 9.01968 51.492C9.12063 51.5652 9.22553 51.6364 9.32846 51.7096C9.53628 51.8561 9.74807 52.0025 9.96184 52.143C10.0905 52.2281 10.2211 52.3092 10.3518 52.3923C10.5556 52.519 10.7615 52.6436 10.9673 52.7643C11.094 52.8375 11.2187 52.9127 11.3474 52.984C11.6482 53.1502 11.951 53.3125 12.2598 53.4668C12.2895 53.4826 12.3192 53.4985 12.3489 53.5103C12.7843 52.2815 13.0199 50.9597 13.0199 49.5844C13.0199 47.4334 12.4399 45.417 11.4325 43.6816Z" fill="#F15E22"></path><path d="M4.95605 47.6319C4.95605 47.6319 4.96397 47.6299 4.96793 47.6299C4.865 47.5052 4.7601 47.3805 4.66113 47.2539C4.7601 47.3805 4.85511 47.5072 4.95605 47.6319Z" fill="#FFCD05"></path><path d="M10.2389 41.9861C10.8189 41.2994 11.476 40.68 12.1985 40.1418C12.2103 40.1576 12.2222 40.1735 12.2321 40.1893C11.001 38.3292 10.2845 36.0991 10.2845 33.7008V33.8849C9.20971 34.8861 7.76481 35.4976 6.18136 35.4976C3.19656 35.4976 0.718463 33.3347 0.233532 30.4912C0.0811255 31.54 0.00195312 32.6105 0.00195312 33.7028C0.00195312 35.1157 0.138526 36.4969 0.391877 37.8345C0.67096 37.8147 0.952022 37.8049 1.23704 37.8049C4.8473 37.8049 8.07952 39.4294 10.2409 41.9861H10.2389Z" fill="#FFCD05"></path><path d="M12.5527 40.6465C12.5943 40.7039 12.6359 40.7593 12.6774 40.8147C12.6359 40.7593 12.5943 40.7039 12.5527 40.6465Z" fill="#FFCD05"></path><path d="M10.318 32.8301C10.314 32.8716 10.312 32.9132 10.3101 32.9547C10.314 32.9132 10.316 32.8697 10.318 32.8301Z" fill="#FFCD05"></path><path d="M10.4074 32.0127C10.4035 32.0444 10.3975 32.074 10.3936 32.1057C10.3975 32.074 10.4035 32.0444 10.4074 32.0127Z" fill="#FFCD05"></path><path d="M10.2388 41.9858C10.6841 42.5142 11.084 43.0801 11.4323 43.6817C12.0142 42.8506 12.4695 41.9245 12.7604 40.9272C12.7307 40.8896 12.705 40.852 12.6753 40.8144C12.6338 40.759 12.5922 40.7036 12.5506 40.6462C12.4418 40.4958 12.3329 40.3434 12.23 40.1891C12.2181 40.1733 12.2062 40.1574 12.1963 40.1416C11.4759 40.6798 10.8168 41.2992 10.2368 41.9858H10.2388Z" fill="#F8991D"></path><path d="M10.2388 41.9858C10.6841 42.5142 11.084 43.0801 11.4323 43.6817C12.0142 42.8506 12.4695 41.9245 12.7604 40.9272C12.7307 40.8896 12.705 40.852 12.6753 40.8144C12.6338 40.759 12.5922 40.7036 12.5506 40.6462C12.4418 40.4958 12.3329 40.3434 12.23 40.1891C12.2181 40.1733 12.2062 40.1574 12.1963 40.1416C11.4759 40.6798 10.8168 41.2992 10.2368 41.9858H10.2388Z" fill="#F47A20"></path><path d="M10.2392 41.9859C8.07778 39.4293 4.84754 37.8047 1.2353 37.8047C0.952261 37.8047 0.669219 37.8146 0.390137 37.8344C0.402013 37.8918 0.413888 37.9472 0.423785 38.0026C0.487123 38.3192 0.556399 38.6338 0.631613 38.9465C0.653385 39.0375 0.675157 39.1285 0.698909 39.2195C0.797875 39.6054 0.904757 39.9873 1.02352 40.3653C1.02352 40.3692 1.0255 40.3712 1.0255 40.3732C1.14425 40.7432 1.27291 41.1053 1.40948 41.4674C1.44313 41.5585 1.47876 41.6475 1.51241 41.7366C1.63116 42.0393 1.75586 42.3381 1.8865 42.633C1.91421 42.6983 1.94192 42.7636 1.97161 42.8289C2.13193 43.185 2.30413 43.5373 2.48425 43.8816C2.51196 43.935 2.54165 43.9884 2.57134 44.0419C2.7277 44.3327 2.89001 44.6216 3.05627 44.9046C3.10377 44.9857 3.15127 45.0629 3.19878 45.1441C3.39077 45.4587 3.5887 45.7694 3.79455 46.0741C3.80445 46.086 3.81038 46.0998 3.82028 46.1117C4.03998 46.4342 4.26958 46.7508 4.5071 47.0615C4.55658 47.1248 4.60805 47.1901 4.65753 47.2535C4.7565 47.3821 4.8614 47.5048 4.96432 47.6294C5.96585 47.4949 6.91592 47.2 7.79276 46.7785C8.23216 44.9838 9.08129 43.3513 10.2372 41.9859H10.2392Z" fill="#F8991D"></path><path d="M10.2392 41.9859C8.07778 39.4293 4.84754 37.8047 1.2353 37.8047C0.952261 37.8047 0.669219 37.8146 0.390137 37.8344C0.402013 37.8918 0.413888 37.9472 0.423785 38.0026C0.487123 38.3192 0.556399 38.6338 0.631613 38.9465C0.653385 39.0375 0.675157 39.1285 0.698909 39.2195C0.797875 39.6054 0.904757 39.9873 1.02352 40.3653C1.02352 40.3692 1.0255 40.3712 1.0255 40.3732C1.14425 40.7432 1.27291 41.1053 1.40948 41.4674C1.44313 41.5585 1.47876 41.6475 1.51241 41.7366C1.63116 42.0393 1.75586 42.3381 1.8865 42.633C1.91421 42.6983 1.94192 42.7636 1.97161 42.8289C2.13193 43.185 2.30413 43.5373 2.48425 43.8816C2.51196 43.935 2.54165 43.9884 2.57134 44.0419C2.7277 44.3327 2.89001 44.6216 3.05627 44.9046C3.10377 44.9857 3.15127 45.0629 3.19878 45.1441C3.39077 45.4587 3.5887 45.7694 3.79455 46.0741C3.80445 46.086 3.81038 46.0998 3.82028 46.1117C4.03998 46.4342 4.26958 46.7508 4.5071 47.0615C4.55658 47.1248 4.60805 47.1901 4.65753 47.2535C4.7565 47.3821 4.8614 47.5048 4.96432 47.6294C5.96585 47.4949 6.91592 47.2 7.79276 46.7785C8.23216 44.9838 9.08129 43.3513 10.2372 41.9859H10.2392Z" fill="#F47A20"></path><path d="M7.79443 46.779C9.25714 46.0725 10.51 45.002 11.4324 43.6822C11.084 43.0806 10.6842 42.5127 10.2389 41.9863C9.08296 43.3517 8.23384 44.9862 7.79443 46.779Z" fill="#F8991D"></path><path d="M7.79443 46.779C9.25714 46.0725 10.51 45.002 11.4324 43.6822C11.084 43.0806 10.6842 42.5127 10.2389 41.9863C9.08296 43.3517 8.23384 44.9862 7.79443 46.779Z" fill="#F8991D"></path><path d="M7.79443 46.779C9.25714 46.0725 10.51 45.002 11.4324 43.6822C11.084 43.0806 10.6842 42.5127 10.2389 41.9863C9.08296 43.3517 8.23384 44.9862 7.79443 46.779Z" fill="#F04F23"></path><path d="M10.3104 32.9551C10.2946 33.2004 10.2847 33.4498 10.2847 33.7011C10.2847 33.4518 10.2946 33.2024 10.3104 32.9551Z" fill="#F8991D"></path><path d="M10.4527 31.704C10.4348 31.8049 10.421 31.9098 10.4071 32.0127C10.5536 30.9995 10.8268 30.028 11.2127 29.1157C11.2028 29.1395 11.1909 29.1612 11.181 29.183C9.93408 28.3104 9.12059 26.8639 9.12059 25.2274C9.12059 24.8949 9.15423 24.5704 9.21757 24.2578C8.3249 23.7354 7.28972 23.4326 6.17933 23.4326C4.30492 23.4326 2.63043 24.2855 1.52201 25.6271C1.03906 26.852 0.668931 28.1323 0.411621 29.4541C1.4369 29.0722 2.5473 28.8624 3.70717 28.8624C6.35153 28.8624 8.73858 29.9508 10.4527 31.704Z" fill="#F8991D"></path><path d="M11.5074 28.4746C11.4402 28.6111 11.3748 28.7497 11.3135 28.8882C11.3768 28.7497 11.4402 28.6111 11.5074 28.4746Z" fill="#F8991D"></path><path d="M10.3911 32.1064C10.3595 32.3459 10.3357 32.5873 10.3159 32.8287C10.3337 32.5853 10.3575 32.3439 10.3911 32.1064Z" fill="#F8991D"></path><path d="M11.85 27.8359C11.7768 27.9646 11.7035 28.0932 11.6362 28.2238C11.7055 28.0932 11.7768 27.9646 11.85 27.8359Z" fill="#F8991D"></path><path d="M6.18128 35.4952C7.76473 35.4952 9.20962 34.8838 10.2864 33.8825V33.6985C10.2864 33.4492 10.2963 33.1998 10.3101 32.9525C10.3141 32.9109 10.3161 32.8674 10.318 32.8278C10.3359 32.5844 10.3596 32.343 10.3932 32.1056C10.3972 32.0739 10.4031 32.0442 10.4071 32.0126C10.4229 31.9116 10.4348 31.8068 10.4526 31.7039C8.74053 29.9506 6.3515 28.8623 3.70714 28.8623C2.54726 28.8623 1.43687 29.0721 0.411589 29.454C0.348251 29.7765 0.288872 30.101 0.239389 30.4295C0.237409 30.4493 0.231471 30.4671 0.229492 30.4869C0.714423 33.3285 3.1945 35.4933 6.17732 35.4933L6.18128 35.4952Z" fill="#FFCD05"></path><path d="M6.18128 35.4952C7.76473 35.4952 9.20962 34.8838 10.2864 33.8825V33.6985C10.2864 33.4492 10.2963 33.1998 10.3101 32.9525C10.3141 32.9109 10.3161 32.8674 10.318 32.8278C10.3359 32.5844 10.3596 32.343 10.3932 32.1056C10.3972 32.0739 10.4031 32.0442 10.4071 32.0126C10.4229 31.9116 10.4348 31.8068 10.4526 31.7039C8.74053 29.9506 6.3515 28.8623 3.70714 28.8623C2.54726 28.8623 1.43687 29.0721 0.411589 29.454C0.348251 29.7765 0.288872 30.101 0.239389 30.4295C0.237409 30.4493 0.231471 30.4671 0.229492 30.4869C0.714423 33.3285 3.1945 35.4933 6.17732 35.4933L6.18128 35.4952Z" fill="#F47A20"></path><path d="M11.6365 28.2236C11.5929 28.3067 11.5494 28.3898 11.5078 28.4749C11.5494 28.3898 11.5909 28.3067 11.6365 28.2236Z" fill="#22B25A"></path><path d="M11.3138 28.8867C11.2802 28.9639 11.2446 29.0371 11.2129 29.1163C11.2446 29.0371 11.2802 28.9639 11.3138 28.8867Z" fill="#22B25A"></path><path d="M11.9413 27.6717C11.9096 27.7251 11.8819 27.7825 11.8503 27.8359C12.4916 26.7219 13.307 25.7246 14.263 24.8776C14.2432 24.8955 14.2215 24.9113 14.1997 24.9311C13.408 24.2246 12.9092 23.1957 12.9092 22.0519C12.9092 21.484 13.0359 20.9438 13.2575 20.459C11.2386 20.7479 9.62155 22.2795 9.21777 24.2583C10.5043 25.0102 11.49 26.2232 11.9413 27.6717Z" fill="#22B25A"></path><path d="M17.2696 22.9424C17.1924 22.976 17.1192 23.0116 17.0439 23.0453C17.1192 23.0097 17.1944 22.974 17.2696 22.9424Z" fill="#22B25A"></path><path d="M14.9733 24.2998C14.9337 24.3295 14.8921 24.3572 14.8525 24.3888C14.8921 24.3592 14.9337 24.3315 14.9733 24.2998Z" fill="#22B25A"></path><path d="M16.4301 23.3555C16.3945 23.3753 16.3569 23.3931 16.3232 23.4129C16.3589 23.3931 16.3945 23.3753 16.4301 23.3555Z" fill="#22B25A"></path><path d="M18.0056 22.6416C17.962 22.6574 17.9225 22.6752 17.8789 22.6911C17.9205 22.6752 17.962 22.6574 18.0056 22.6416Z" fill="#22B25A"></path><path d="M15.6941 23.7949C15.6268 23.8385 15.5595 23.884 15.4922 23.9295C15.5595 23.884 15.6268 23.8404 15.6941 23.7949Z" fill="#22B25A"></path><path d="M11.1811 29.185C11.191 29.1613 11.2009 29.1395 11.2127 29.1177C11.2444 29.0386 11.28 28.9654 11.3137 28.8882C11.377 28.7497 11.4404 28.6112 11.5077 28.4746C11.5492 28.3895 11.5908 28.3064 11.6363 28.2233C11.7056 28.0927 11.7768 27.9641 11.8501 27.8355C11.8817 27.7801 11.9095 27.7247 11.9411 27.6712C11.4898 26.2228 10.5041 25.0117 9.21759 24.2578C9.15425 24.5724 9.12061 24.897 9.12061 25.2274C9.12061 26.8639 9.9341 28.3104 11.1811 29.183V29.185Z" fill="#F8991D"></path><path d="M11.1811 29.185C11.191 29.1613 11.2009 29.1395 11.2127 29.1177C11.2444 29.0386 11.28 28.9654 11.3137 28.8882C11.377 28.7497 11.4404 28.6112 11.5077 28.4746C11.5492 28.3895 11.5908 28.3064 11.6363 28.2233C11.7056 28.0927 11.7768 27.9641 11.8501 27.8355C11.8817 27.7801 11.9095 27.7247 11.9411 27.6712C11.4898 26.2228 10.5041 25.0117 9.21759 24.2578C9.15425 24.5724 9.12061 24.897 9.12061 25.2274C9.12061 26.8639 9.9341 28.3104 11.1811 29.183V29.185Z" fill="#246C36"></path><path d="M18.0037 22.6137C18.3105 21.464 18.9498 20.4489 19.8108 19.6792C19.1814 18.8738 18.2432 18.3237 17.1704 18.2148C16.7211 18.3989 16.2283 18.5018 15.7117 18.5018C15.5771 18.5018 15.4425 18.4939 15.3119 18.48C14.3994 18.854 13.6631 19.5644 13.2554 20.4608C13.481 20.4291 13.7106 20.4054 13.9442 20.4054C15.6464 20.4054 17.1427 21.2859 18.0018 22.6157L18.0037 22.6137Z" fill="#F8991D"></path><path d="M19.6504 22.1709C19.3891 22.2263 19.1298 22.2876 18.8745 22.3609C19.1298 22.2876 19.3872 22.2263 19.6504 22.1709Z" fill="#F8991D"></path><path d="M20.5728 22.0156C20.3115 22.0493 20.0522 22.0908 19.7969 22.1403C20.0522 22.0908 20.3115 22.0493 20.5728 22.0156Z" fill="#F8991D"></path><path d="M17.8792 22.6904C17.6733 22.7676 17.4694 22.8527 17.2695 22.9417C17.4694 22.8527 17.6733 22.7676 17.8792 22.6904Z" fill="#F8991D"></path><path d="M18.0197 22.6331C18.0197 22.6331 18.0098 22.637 18.0059 22.639C18.2572 22.546 18.5145 22.4629 18.7738 22.3877C18.5185 22.4609 18.2671 22.542 18.0197 22.6331Z" fill="#F8991D"></path><path d="M17.0438 23.0469C16.8359 23.1458 16.6301 23.2487 16.4302 23.3575C16.6301 23.2487 16.8359 23.1458 17.0438 23.0469Z" fill="#F8991D"></path><path d="M14.8525 24.3867C14.6506 24.543 14.4547 24.7073 14.2646 24.8775C14.4566 24.7073 14.6506 24.545 14.8525 24.3867Z" fill="#F8991D"></path><path d="M15.4922 23.9297C15.3161 24.0484 15.1439 24.1731 14.9736 24.2997C15.1419 24.1711 15.3161 24.0484 15.4922 23.9297Z" fill="#F8991D"></path><path d="M16.3233 23.415C16.1095 23.5338 15.8997 23.6644 15.6938 23.795C15.8997 23.6624 16.1095 23.5338 16.3233 23.415Z" fill="#F8991D"></path><path d="M18.0039 22.6133C18.0039 22.6133 18.0138 22.6271 18.0178 22.635C18.2652 22.544 18.5186 22.4629 18.7719 22.3897C18.8056 22.3798 18.8392 22.3699 18.8728 22.36C19.1282 22.2868 19.3855 22.2254 19.6487 22.17C19.6962 22.1601 19.7457 22.1502 19.7952 22.1403C20.0505 22.0909 20.3098 22.0493 20.5711 22.0157C20.5909 22.0137 20.6107 22.0078 20.6305 22.0058C20.6206 21.1272 20.3138 20.3218 19.8091 19.6787C18.9481 20.4485 18.3087 21.4636 18.002 22.6133H18.0039Z" fill="#F8991D"></path><path d="M18.0039 22.6133C18.0039 22.6133 18.0138 22.6271 18.0178 22.635C18.2652 22.544 18.5186 22.4629 18.7719 22.3897C18.8056 22.3798 18.8392 22.3699 18.8728 22.36C19.1282 22.2868 19.3855 22.2254 19.6487 22.17C19.6962 22.1601 19.7457 22.1502 19.7952 22.1403C20.0505 22.0909 20.3098 22.0493 20.5711 22.0157C20.5909 22.0137 20.6107 22.0078 20.6305 22.0058C20.6206 21.1272 20.3138 20.3218 19.8091 19.6787C18.9481 20.4485 18.3087 21.4636 18.002 22.6133H18.0039Z" fill="#F15E22"></path><path d="M14.2017 24.9308C14.2215 24.913 14.2432 24.8952 14.265 24.8774C14.457 24.7072 14.651 24.5449 14.8529 24.3866C14.8924 24.357 14.934 24.3293 14.9736 24.2976C15.1418 24.169 15.316 24.0463 15.4922 23.9276C15.5595 23.882 15.6268 23.8385 15.6941 23.793C15.8999 23.6604 16.1097 23.5318 16.3235 23.4131C16.3591 23.3933 16.3947 23.3755 16.4304 23.3557C16.6303 23.2469 16.8361 23.144 17.044 23.045C17.1192 23.0094 17.1944 22.9738 17.2696 22.9421C17.4695 22.8531 17.6734 22.768 17.8792 22.6908C17.9208 22.675 17.9624 22.6572 18.0059 22.6413C18.0099 22.6394 18.0138 22.6374 18.0198 22.6354C18.0198 22.6354 18.0039 22.6413 17.996 22.6433C17.998 22.6334 18.0019 22.6235 18.0039 22.6136C17.1449 21.2839 15.6485 20.4033 13.9463 20.4033C13.7128 20.4033 13.4832 20.4271 13.2575 20.4587C13.0378 20.9455 12.9092 21.4837 12.9092 22.0517C12.9092 23.1954 13.408 24.2224 14.1997 24.9308H14.2017Z" fill="#22B25A"></path><path d="M14.2017 24.9308C14.2215 24.913 14.2432 24.8952 14.265 24.8774C14.457 24.7072 14.651 24.5449 14.8529 24.3866C14.8924 24.357 14.934 24.3293 14.9736 24.2976C15.1418 24.169 15.316 24.0463 15.4922 23.9276C15.5595 23.882 15.6268 23.8385 15.6941 23.793C15.8999 23.6604 16.1097 23.5318 16.3235 23.4131C16.3591 23.3933 16.3947 23.3755 16.4304 23.3557C16.6303 23.2469 16.8361 23.144 17.044 23.045C17.1192 23.0094 17.1944 22.9738 17.2696 22.9421C17.4695 22.8531 17.6734 22.768 17.8792 22.6908C17.9208 22.675 17.9624 22.6572 18.0059 22.6413C18.0099 22.6394 18.0138 22.6374 18.0198 22.6354C18.0198 22.6354 18.0039 22.6413 17.996 22.6433C17.998 22.6334 18.0019 22.6235 18.0039 22.6136C17.1449 21.2839 15.6485 20.4033 13.9463 20.4033C13.7128 20.4033 13.4832 20.4271 13.2575 20.4587C13.0378 20.9455 12.9092 21.4837 12.9092 22.0517C12.9092 23.1954 13.408 24.2224 14.1997 24.9308H14.2017Z" fill="#246C36"></path><path d="M17.9961 22.643C17.9961 22.643 18.0119 22.637 18.0198 22.635C18.0139 22.6271 18.0099 22.6212 18.006 22.6133C18.004 22.6232 18.0001 22.6331 17.9981 22.643H17.9961Z" fill="#F8991D"></path><path d="M17.9961 22.643C17.9961 22.643 18.0119 22.637 18.0198 22.635C18.0139 22.6271 18.0099 22.6212 18.006 22.6133C18.004 22.6232 18.0001 22.6331 17.9981 22.643H17.9961Z" fill="#22B25A"></path><path d="M17.9961 22.643C17.9961 22.643 18.0119 22.637 18.0198 22.635C18.0139 22.6271 18.0099 22.6212 18.006 22.6133C18.004 22.6232 18.0001 22.6331 17.9981 22.643H17.9961Z" fill="#F8991D"></path><path d="M41.2052 44.6914C41.0806 44.9051 40.9519 45.1149 40.8232 45.3246C40.9539 45.1149 41.0825 44.9051 41.2052 44.6914Z" fill="#F8991D"></path><path d="M41.7279 43.7275C41.623 43.9314 41.5142 44.1332 41.4033 44.3331C41.5142 44.1332 41.623 43.9314 41.7279 43.7275Z" fill="#F8991D"></path><path d="M42.209 42.7246C42.1159 42.9344 42.017 43.1421 41.916 43.3499C42.017 43.1441 42.1139 42.9344 42.209 42.7246Z" fill="#F8991D"></path><path d="M40.6413 45.6211C40.4454 45.9238 40.2455 46.2226 40.0356 46.5135C40.2455 46.2226 40.4454 45.9238 40.6413 45.6211Z" fill="#F8991D"></path><path d="M36.8647 50.0654C36.6964 50.2158 36.5242 50.3642 36.3521 50.5107C36.5242 50.3642 36.6964 50.2158 36.8647 50.0654Z" fill="#F8991D"></path><path d="M36.0433 50.7725C35.8433 50.9347 35.6375 51.095 35.4316 51.2513C35.6375 51.093 35.8433 50.9367 36.0433 50.7725Z" fill="#F8991D"></path><path d="M35.1523 51.4682C35.1662 51.4583 35.1781 51.4464 35.1919 51.4365C35.1801 51.4464 35.1662 51.4543 35.1523 51.4642C35.1523 51.4642 35.1523 51.4662 35.1523 51.4682Z" fill="#F8991D"></path><path d="M37.6502 49.3174C37.4959 49.4717 37.3395 49.6221 37.1812 49.7705C37.3395 49.6221 37.4959 49.4698 37.6502 49.3174Z" fill="#F8991D"></path><path d="M39.984 46.583C39.79 46.8521 39.5901 47.1173 39.3843 47.3765C39.5901 47.1173 39.79 46.8521 39.984 46.583Z" fill="#F8991D"></path><path d="M39.1506 47.6611C39.0002 47.8452 38.8497 48.0272 38.6934 48.2053C38.8497 48.0272 39.0002 47.8432 39.1506 47.6611Z" fill="#F8991D"></path><path d="M38.4083 48.5225C38.2599 48.6847 38.1094 48.847 37.957 49.0053C38.1094 48.847 38.2599 48.6847 38.4083 48.5225Z" fill="#F8991D"></path><path d="M42.7788 41.3329C42.8421 41.1627 42.9015 40.9905 42.9609 40.8164C42.9015 40.9886 42.8421 41.1607 42.7788 41.3329Z" fill="#F8991D"></path><path d="M43.5189 38.8955C43.4734 39.0795 43.4279 39.2636 43.3804 39.4456C43.4279 39.2636 43.4734 39.0795 43.5189 38.8955Z" fill="#F8991D"></path><path d="M42.3057 42.503C42.4561 42.1547 42.6006 41.8025 42.7352 41.4463C42.464 41.5512 42.1829 41.6422 41.8999 41.7213C42.0464 41.9746 42.1849 42.2338 42.3076 42.503H42.3057Z" fill="#F8991D"></path><path d="M43.6775 38.2188C43.6775 38.2188 43.6716 38.2188 43.6696 38.2208C43.6518 38.3058 43.636 38.3909 43.6182 38.474C43.638 38.389 43.6597 38.3039 43.6775 38.2168V38.2188Z" fill="#F8991D"></path><path d="M43.2599 39.8652C43.2085 40.0433 43.157 40.2214 43.0996 40.3975C43.155 40.2194 43.2065 40.0433 43.2599 39.8652Z" fill="#F8991D"></path><path d="M43.0993 40.3974C43.1547 40.2193 43.2062 40.0432 43.2596 39.8651C43.3012 39.7246 43.3408 39.586 43.3804 39.4456C43.4279 39.2635 43.4734 39.0795 43.5189 38.8954C43.5526 38.755 43.5862 38.6164 43.6179 38.4759C43.6357 38.3909 43.6515 38.3058 43.6693 38.2227C42.4778 38.5492 41.3635 39.0577 40.354 39.7147C40.9557 40.3083 41.4743 40.9851 41.8979 41.7232C42.1809 41.644 42.462 41.553 42.7331 41.4481C42.749 41.4085 42.7628 41.3709 42.7767 41.3333C42.84 41.1632 42.8994 40.991 42.9588 40.8169C43.0063 40.6764 43.0538 40.5378 43.0993 40.3974Z" fill="#F8991D"></path><path d="M43.0993 40.3974C43.1547 40.2193 43.2062 40.0432 43.2596 39.8651C43.3012 39.7246 43.3408 39.586 43.3804 39.4456C43.4279 39.2635 43.4734 39.0795 43.5189 38.8954C43.5526 38.755 43.5862 38.6164 43.6179 38.4759C43.6357 38.3909 43.6515 38.3058 43.6693 38.2227C42.4778 38.5492 41.3635 39.0577 40.354 39.7147C40.9557 40.3083 41.4743 40.9851 41.8979 41.7232C42.1809 41.644 42.462 41.553 42.7331 41.4481C42.749 41.4085 42.7628 41.3709 42.7767 41.3333C42.84 41.1632 42.8994 40.991 42.9588 40.8169C43.0063 40.6764 43.0538 40.5378 43.0993 40.3974Z" fill="#F15E22"></path><path d="M39.3703 42.0669C38.8438 42.0669 38.3272 42.0234 37.8225 41.9383C36.0648 43.9962 35.002 46.6656 35.002 49.5844C35.002 50.2235 35.0534 50.8548 35.1504 51.4662C35.1643 51.4563 35.1781 51.4484 35.19 51.4385C35.2711 51.3772 35.3503 51.3138 35.4315 51.2525C35.6373 51.0942 35.8432 50.9359 36.0431 50.7736C36.148 50.6885 36.2489 50.6015 36.3499 50.5124C36.5221 50.366 36.6943 50.2176 36.8625 50.0672C36.9694 49.9702 37.0743 49.8713 37.1792 49.7724C37.3375 49.6239 37.4939 49.4716 37.6483 49.3192C37.7512 49.2163 37.8541 49.1114 37.9571 49.0066C38.1095 48.8483 38.2599 48.686 38.4083 48.5237C38.5034 48.4189 38.5984 48.314 38.6914 48.2091C38.8478 48.031 38.9982 47.847 39.1486 47.6649C39.2278 47.57 39.307 47.477 39.3841 47.38C39.59 47.1208 39.7899 46.8556 39.9839 46.5865C40.0017 46.5627 40.0195 46.541 40.0353 46.5172C40.2451 46.2264 40.4451 45.9276 40.641 45.6248C40.7043 45.5278 40.7637 45.4269 40.8231 45.33C40.9537 45.1202 41.0824 44.9105 41.2051 44.6967C41.2724 44.578 41.3377 44.4573 41.403 44.3386C41.5139 44.1387 41.6227 43.9369 41.7277 43.7331C41.791 43.6084 41.8543 43.4798 41.9157 43.3551C42.0166 43.1493 42.1156 42.9396 42.2086 42.7298C42.2403 42.6566 42.2739 42.5814 42.3056 42.5082C42.1829 42.2411 42.0443 41.9818 41.8979 41.7266C41.0943 41.9502 40.2471 42.0709 39.3703 42.0709V42.0669Z" fill="#FFCD05"></path><path d="M39.3703 42.0669C38.8438 42.0669 38.3272 42.0234 37.8225 41.9383C36.0648 43.9962 35.002 46.6656 35.002 49.5844C35.002 50.2235 35.0534 50.8548 35.1504 51.4662C35.1643 51.4563 35.1781 51.4484 35.19 51.4385C35.2711 51.3772 35.3503 51.3138 35.4315 51.2525C35.6373 51.0942 35.8432 50.9359 36.0431 50.7736C36.148 50.6885 36.2489 50.6015 36.3499 50.5124C36.5221 50.366 36.6943 50.2176 36.8625 50.0672C36.9694 49.9702 37.0743 49.8713 37.1792 49.7724C37.3375 49.6239 37.4939 49.4716 37.6483 49.3192C37.7512 49.2163 37.8541 49.1114 37.9571 49.0066C38.1095 48.8483 38.2599 48.686 38.4083 48.5237C38.5034 48.4189 38.5984 48.314 38.6914 48.2091C38.8478 48.031 38.9982 47.847 39.1486 47.6649C39.2278 47.57 39.307 47.477 39.3841 47.38C39.59 47.1208 39.7899 46.8556 39.9839 46.5865C40.0017 46.5627 40.0195 46.541 40.0353 46.5172C40.2451 46.2264 40.4451 45.9276 40.641 45.6248C40.7043 45.5278 40.7637 45.4269 40.8231 45.33C40.9537 45.1202 41.0824 44.9105 41.2051 44.6967C41.2724 44.578 41.3377 44.4573 41.403 44.3386C41.5139 44.1387 41.6227 43.9369 41.7277 43.7331C41.791 43.6084 41.8543 43.4798 41.9157 43.3551C42.0166 43.1493 42.1156 42.9396 42.2086 42.7298C42.2403 42.6566 42.2739 42.5814 42.3056 42.5082C42.1829 42.2411 42.0443 41.9818 41.8979 41.7266C41.0943 41.9502 40.2471 42.0709 39.3703 42.0709V42.0669Z" fill="#F8991D"></path><path d="M37.8228 41.939C38.3275 42.0221 38.8441 42.0676 39.3706 42.0676C40.2474 42.0676 41.0926 41.9469 41.8982 41.7233C41.4746 40.9852 40.956 40.3085 40.3543 39.7148C39.4082 40.3322 38.5551 41.0822 37.8228 41.939Z" fill="#F8991D"></path><path d="M37.8228 41.939C38.3275 42.0221 38.8441 42.0676 39.3706 42.0676C40.2474 42.0676 41.0926 41.9469 41.8982 41.7233C41.4746 40.9852 40.956 40.3085 40.3543 39.7148C39.4082 40.3322 38.5551 41.0822 37.8228 41.939Z" fill="#FFCD05"></path><path d="M37.8228 41.939C38.3275 42.0221 38.8441 42.0676 39.3706 42.0676C40.2474 42.0676 41.0926 41.9469 41.8982 41.7233C41.4746 40.9852 40.956 40.3085 40.3543 39.7148C39.4082 40.3322 38.5551 41.0822 37.8228 41.939Z" fill="#F04E23"></path><path d="M30.4555 17.4653C30.4555 18.33 30.0992 19.1097 29.5252 19.6697C30.408 20.8312 31.7974 21.5832 33.367 21.5832C36.0332 21.5832 38.1946 19.4243 38.1946 16.7589C38.1946 14.0934 36.0332 11.9346 33.367 11.9346C31.3917 11.9346 29.6974 13.1218 28.9492 14.8177C29.8498 15.3579 30.4535 16.3394 30.4535 17.4653H30.4555Z" fill="#FFCD05"></path><path d="M17.1724 18.2127C18.5817 17.6368 19.5753 16.2537 19.5753 14.639C19.5753 14.4787 19.5614 14.3204 19.5436 14.166C18.552 13.8455 17.8335 12.9154 17.8335 11.8152C17.8335 11.6846 17.8474 11.558 17.8671 11.4333C17.2516 11.0197 16.5113 10.7783 15.7156 10.7783C13.5819 10.7783 11.854 12.5058 11.854 14.639C11.854 16.6356 13.3702 18.278 15.3158 18.4778C15.7651 18.2938 16.258 18.1909 16.7746 18.1909C16.9111 18.1909 17.0438 18.1988 17.1744 18.2127H17.1724Z" fill="#F8991D"></path><path d="M17.1725 18.2132C17.0419 18.1993 16.9093 18.1914 16.7727 18.1914C16.2561 18.1914 15.7633 18.2943 15.314 18.4783C15.4446 18.4922 15.5772 18.5001 15.7138 18.5001C16.2304 18.5001 16.7232 18.3972 17.1725 18.2132Z" fill="#F8991D"></path><path d="M17.1725 18.2132C17.0419 18.1993 16.9093 18.1914 16.7727 18.1914C16.2561 18.1914 15.7633 18.2943 15.314 18.4783C15.4446 18.4922 15.5772 18.5001 15.7138 18.5001C16.2304 18.5001 16.7232 18.3972 17.1725 18.2132Z" fill="#F15E22"></path><path d="M28.4923 20.3361C28.8802 20.1838 29.2306 19.9562 29.5255 19.6693C28.9119 18.8599 28.5418 17.8547 28.5418 16.7585C28.5418 16.0678 28.6902 15.4129 28.9515 14.8172C28.4883 14.5382 27.946 14.376 27.366 14.376C25.6599 14.376 24.2783 15.7592 24.2783 17.4649C24.2783 17.7063 24.308 17.9398 24.3615 18.1674C26.0221 18.3098 27.4927 19.1231 28.4943 20.3381L28.4923 20.3361Z" fill="#22B25A"></path><path d="M27.3659 20.5515C27.7638 20.5515 28.1438 20.4743 28.4941 20.3358C27.4926 19.1208 26.022 18.3075 24.3613 18.165C24.678 19.5324 25.9032 20.5515 27.3659 20.5515Z" fill="#F8991D"></path><path d="M27.3659 20.5515C27.7638 20.5515 28.1438 20.4743 28.4941 20.3358C27.4926 19.1208 26.022 18.3075 24.3613 18.165C24.678 19.5324 25.9032 20.5515 27.3659 20.5515Z" fill="#246C36"></path><path d="M29.5252 19.6694C30.0992 19.1094 30.4555 18.3298 30.4555 17.465C30.4555 16.3391 29.8518 15.3576 28.9512 14.8174C28.69 15.411 28.5415 16.068 28.5415 16.7586C28.5415 17.8548 28.9116 18.862 29.5252 19.6694Z" fill="#FFCD05"></path><path d="M29.5252 19.6694C30.0992 19.1094 30.4555 18.3298 30.4555 17.465C30.4555 16.3391 29.8518 15.3576 28.9512 14.8174C28.69 15.411 28.5415 16.068 28.5415 16.7586C28.5415 17.8548 28.9116 18.862 29.5252 19.6694Z" fill="#258F44"></path><path d="M19.5417 14.168C19.7812 14.2452 20.0366 14.2887 20.3018 14.2887C21.6675 14.2887 22.774 13.1826 22.774 11.8172C22.774 10.4518 21.6675 9.34766 20.3018 9.34766C19.0687 9.34766 18.0474 10.2539 17.8633 11.4353C18.7698 12.0448 19.4012 13.0302 19.5417 14.168Z" fill="#22B25A"></path><path d="M10.0629 19.3984C10.9358 19.3984 11.6464 18.69 11.6464 17.8174C11.6464 16.9447 10.9358 16.2383 10.0629 16.2383C9.19004 16.2383 8.48145 16.9467 8.48145 17.8174C8.48145 18.688 9.19004 19.3984 10.0629 19.3984Z" fill="#F8991D"></path><path d="M34.7822 11.6358C35.6551 11.6358 36.3636 10.9273 36.3636 10.0547C36.3636 9.18204 35.6551 8.47363 34.7822 8.47363C33.9093 8.47363 33.1987 9.18204 33.1987 10.0547C33.1987 10.9273 33.9093 11.6358 34.7822 11.6358Z" fill="#F8991D"></path><path d="M23.1284 3.16212C24.0012 3.16212 24.7079 2.45569 24.7079 1.58106C24.7079 0.706431 24.0012 0 23.1284 0C22.2555 0 21.5449 0.70841 21.5449 1.58106C21.5449 2.45371 22.2535 3.16212 23.1284 3.16212Z" fill="#22B25A"></path><path d="M26.6594 4.00478C27.2195 4.00478 27.6728 3.55163 27.6728 2.99163C27.6728 2.43163 27.2195 1.98047 26.6594 1.98047C26.0992 1.98047 25.6479 2.43163 25.6479 2.99163C25.6479 3.55163 26.1012 4.00478 26.6594 4.00478Z" fill="#F8991D"></path><path d="M19.4941 17.4646C19.4941 17.9118 19.8583 18.2759 20.3037 18.2759C20.749 18.2759 21.1132 17.9118 21.1132 17.4646C21.1132 17.0174 20.751 16.6553 20.3037 16.6553C19.8564 16.6553 19.4941 17.0174 19.4941 17.4646Z" fill="#F8991D"></path><path d="M10.417 15.0962C10.8623 15.0962 11.2265 14.7341 11.2265 14.2869C11.2265 13.8397 10.8643 13.4756 10.417 13.4756C9.96966 13.4756 9.60547 13.8377 9.60547 14.2869C9.60547 14.7361 9.96768 15.0962 10.417 15.0962Z" fill="#F8991D"></path><path d="M27.0116 10.67C28.7197 10.67 30.1032 9.28679 30.1032 7.58107C30.1032 5.87534 28.7197 4.49414 27.0116 4.49414C25.3034 4.49414 23.9238 5.87732 23.9238 7.58107C23.9238 9.28481 25.3074 10.67 27.0116 10.67Z" fill="#F8991D"></path><path d="M21.25 45.4512C21.5192 45.471 21.7943 45.4809 22.0694 45.4809C21.7943 45.4809 21.5212 45.471 21.25 45.4512Z" fill="#F8991D"></path><path d="M22.0693 45.4807C22.2593 45.4807 22.4474 45.4747 22.6354 45.4648C22.4474 45.4747 22.2574 45.4807 22.0693 45.4807Z" fill="#F8991D"></path><path d="M20.4502 45.3682C20.6343 45.3919 20.8203 45.4097 21.0064 45.4275C20.8203 45.4117 20.6343 45.3919 20.4502 45.3682Z" fill="#F8991D"></path><g style="mix-blend-mode:multiply"><path d="M16.4004 55.0264L16.5093 55.0561C16.5093 55.0561 16.5152 55.0542 16.5192 55.0522C16.4796 55.0423 16.438 55.0324 16.3984 55.0205C16.3984 55.0205 16.3984 55.0245 16.3984 55.0264H16.4004Z" fill="#F8991D"></path></g><path d="M22.8057 45.4545C22.9403 45.4466 23.0768 45.4347 23.2114 45.4229C23.0768 45.4367 22.9403 45.4466 22.8057 45.4545Z" fill="#F8991D"></path><path d="M23.3026 45.4177C23.2729 45.4217 23.2412 45.4217 23.2135 45.4256C23.0789 45.4395 22.9424 45.4494 22.8078 45.4573C22.7504 45.4612 22.695 45.4652 22.6376 45.4672C22.4495 45.4771 22.2615 45.483 22.0715 45.483C21.7963 45.483 21.5232 45.4731 21.252 45.4533C21.1709 45.4474 21.0897 45.4375 21.0086 45.4296C20.8225 45.4138 20.6365 45.394 20.4524 45.3702C20.4267 45.3663 20.4009 45.3663 20.3752 45.3623C17.6853 46.417 15.7832 49.0369 15.7832 52.0981C15.7832 53.141 16.0029 54.1284 16.3988 55.0228C16.4384 55.0327 16.4779 55.0446 16.5195 55.0545C20.3752 53.4952 23.1304 49.7909 23.3026 45.4197V45.4177Z" fill="#F8991D"></path><path d="M23.3026 45.4177C23.2729 45.4217 23.2412 45.4217 23.2135 45.4256C23.0789 45.4395 22.9424 45.4494 22.8078 45.4573C22.7504 45.4612 22.695 45.4652 22.6376 45.4672C22.4495 45.4771 22.2615 45.483 22.0715 45.483C21.7963 45.483 21.5232 45.4731 21.252 45.4533C21.1709 45.4474 21.0897 45.4375 21.0086 45.4296C20.8225 45.4138 20.6365 45.394 20.4524 45.3702C20.4267 45.3663 20.4009 45.3663 20.3752 45.3623C17.6853 46.417 15.7832 49.0369 15.7832 52.0981C15.7832 53.141 16.0029 54.1284 16.3988 55.0228C16.4384 55.0327 16.4779 55.0446 16.5195 55.0545C20.3752 53.4952 23.1304 49.7909 23.3026 45.4197V45.4177Z" fill="#F15E22"></path><path d="M33.1017 29.5687C33.0602 29.4579 33.0206 29.3471 32.9771 29.2383C33.0206 29.3471 33.0602 29.4579 33.1017 29.5687Z" fill="#F8991D"></path><path d="M32.7694 28.7695C32.7239 28.6705 32.6803 28.5716 32.6328 28.4727C32.6803 28.5696 32.7239 28.6686 32.7694 28.7695Z" fill="#F8991D"></path><path d="M32.3655 27.9787C32.322 27.8995 32.2804 27.8184 32.2349 27.7393C32.2804 27.8184 32.322 27.8995 32.3655 27.9787Z" fill="#F8991D"></path><path d="M37.5355 27.6355C37.4702 27.5108 37.4108 27.3802 37.3554 27.2496C37.3455 27.2279 37.3376 27.2061 37.3277 27.1843C37.1891 26.8499 37.0802 26.5016 37.0031 26.1395C36.9971 26.1118 36.9912 26.0861 36.9852 26.0584C36.9496 25.8842 36.9239 25.7081 36.9061 25.53C36.9021 25.4984 36.9001 25.4687 36.8962 25.437C36.8784 25.253 36.8665 25.067 36.8665 24.877C36.8665 24.6594 36.8803 24.4437 36.9041 24.232C36.9061 24.2122 36.908 24.1944 36.908 24.1726C36.9318 23.9708 36.9674 23.7729 37.011 23.577C37.0149 23.5572 37.0169 23.5354 37.0228 23.5156C34.8971 24.0598 33.0583 25.3262 31.7896 27.0399C31.9459 27.2674 32.0944 27.5029 32.2349 27.7404C32.2804 27.8195 32.322 27.9006 32.3655 27.9798C32.4566 28.144 32.5496 28.3083 32.6308 28.4765C32.6783 28.5734 32.7218 28.6724 32.7673 28.7733C32.8406 28.9276 32.9118 29.084 32.9752 29.2423C33.0187 29.3511 33.0583 29.4619 33.0999 29.5727C33.1394 29.6796 33.185 29.7864 33.2226 29.8953C34.9188 29.6598 36.4251 28.8366 37.5315 27.6375L37.5355 27.6355Z" fill="#F15E22"></path><path d="M39.0281 20.2549C39.0281 20.2549 39.0162 20.2648 39.0103 20.2707C39.0162 20.2668 39.0221 20.2608 39.0281 20.2569V20.2549Z" fill="#F8991D"></path><path d="M38.1313 21.1867C38.1313 21.1867 38.1393 21.1768 38.1432 21.1729C38.1393 21.1768 38.1353 21.1808 38.1313 21.1867Z" fill="#F8991D"></path><path d="M37.7534 21.7331C37.7653 21.7153 37.7772 21.6975 37.7871 21.6797C37.7772 21.6975 37.7653 21.7153 37.7534 21.7331Z" fill="#F8991D"></path><path d="M37.0308 23.4941C37.0308 23.4941 37.0269 23.508 37.0249 23.5139C37.0249 23.5139 37.0289 23.5001 37.0308 23.4941Z" fill="#F8991D"></path><path d="M37.4385 22.3184C37.4504 22.2927 37.4622 22.2669 37.4761 22.2412C37.4642 22.2669 37.4504 22.2927 37.4385 22.3184Z" fill="#F8991D"></path><path d="M37.1914 22.9367C37.2013 22.907 37.2112 22.8793 37.2211 22.8516C37.2112 22.8793 37.2013 22.9089 37.1914 22.9367Z" fill="#F8991D"></path><path d="M37.5356 27.6358C37.5356 27.6358 37.5356 27.6358 37.5396 27.6338C37.5396 27.6338 37.5356 27.6338 37.5356 27.6358Z" fill="#F8991D"></path><path d="M37.0251 23.5137C37.0191 23.5335 37.0171 23.5552 37.0132 23.575C37.0171 23.5552 37.0211 23.5335 37.027 23.5137H37.0251Z" fill="#F8991D"></path><path d="M36.8983 25.435C36.8805 25.251 36.8687 25.063 36.8687 24.875C36.8687 25.065 36.8805 25.251 36.8983 25.435Z" fill="#F8991D"></path><path d="M37.3555 27.25C37.4109 27.3806 37.4703 27.5112 37.5356 27.6359C37.5356 27.6359 37.5376 27.6339 37.5395 27.6319C37.4742 27.5053 37.4109 27.3806 37.3555 27.25Z" fill="#F8991D"></path><path d="M37.328 27.1825C37.1895 26.8481 37.0806 26.4998 37.0034 26.1377C37.0806 26.4998 37.1895 26.8461 37.328 27.1825Z" fill="#F8991D"></path><path d="M36.9062 24.2303C36.9082 24.2105 36.9102 24.1927 36.9102 24.1709C36.9102 24.1907 36.9082 24.2105 36.9062 24.2303Z" fill="#F8991D"></path><path d="M36.9874 26.0586C36.9517 25.8845 36.926 25.7084 36.9082 25.5303C36.926 25.7103 36.9537 25.8845 36.9874 26.0586Z" fill="#F8991D"></path><path d="M39.4356 23.2176H39.4415C40.1956 23.2255 40.9319 23.3165 41.6346 23.4907C40.9854 22.2519 40.2233 21.0805 39.3604 19.9941C39.2456 20.0773 39.1367 20.1663 39.0278 20.2573C39.3069 21.0271 39.4593 21.8582 39.4593 22.7269C39.4593 22.8931 39.4455 23.0553 39.4356 23.2196V23.2176Z" fill="#F8991D"></path><path d="M39.01 20.2686C38.6914 20.5396 38.3984 20.8404 38.1411 21.1709C38.3984 20.8404 38.6914 20.5377 39.01 20.2686Z" fill="#F8991D"></path><path d="M43.3408 27.8096C43.3547 27.861 43.3666 27.9105 43.3804 27.9619C43.3666 27.9125 43.3547 27.861 43.3408 27.8096Z" fill="#F8991D"></path><path d="M42.9014 26.4053C42.9014 26.4053 42.9033 26.4132 42.9053 26.4152C42.9053 26.4112 42.9014 26.4073 42.9014 26.4053Z" fill="#F8991D"></path><path d="M43.519 28.499C43.5369 28.5703 43.5527 28.6435 43.5685 28.7147C43.5527 28.6435 43.5369 28.5703 43.519 28.499Z" fill="#F8991D"></path><path d="M43.812 29.9072C43.8278 29.9923 43.8417 30.0794 43.8556 30.1664C43.8417 30.0794 43.8259 29.9943 43.812 29.9072Z" fill="#F8991D"></path><path d="M42.6104 25.6211C42.6282 25.6646 42.644 25.7062 42.6618 25.7497C42.644 25.7082 42.6282 25.6646 42.6104 25.6211Z" fill="#F8991D"></path><path d="M43.6772 29.1973C43.6931 29.2784 43.7089 29.3595 43.7267 29.4407C43.7109 29.3595 43.6931 29.2784 43.6772 29.1973Z" fill="#F8991D"></path><path d="M42.0249 24.2715C42.0526 24.3269 42.0783 24.3843 42.1041 24.4397C42.0783 24.3823 42.0526 24.3269 42.0249 24.2715Z" fill="#F8991D"></path><path d="M37.4761 22.242C37.5612 22.0678 37.6522 21.8976 37.7532 21.7334C37.6522 21.8976 37.5612 22.0678 37.4761 22.242Z" fill="#F8991D"></path><path d="M37.2207 22.8497C37.286 22.6676 37.3573 22.4915 37.4384 22.3193C37.3573 22.4915 37.284 22.6696 37.2207 22.8497Z" fill="#F8991D"></path><path d="M42.3237 24.9287C42.3475 24.9821 42.3712 25.0356 42.395 25.091C42.3712 25.0356 42.3475 24.9821 42.3237 24.9287Z" fill="#F8991D"></path><path d="M37.7871 21.6793C37.894 21.5091 38.0068 21.3449 38.1295 21.1846C38.0068 21.3429 37.894 21.5091 37.7871 21.6793Z" fill="#F8991D"></path><path d="M41.708 23.6328C41.7357 23.6862 41.7615 23.7397 41.7892 23.7931C41.7615 23.7397 41.7357 23.6862 41.708 23.6328Z" fill="#F8991D"></path><path d="M43.9525 30.8178C43.9446 30.7564 43.9347 30.6951 43.9248 30.6357C43.9347 30.6971 43.9426 30.7564 43.9505 30.8178H43.9525Z" fill="#F8991D"></path><path d="M37.0308 23.4945C37.0743 23.3046 37.1297 23.1186 37.1911 22.9365C37.1277 23.1186 37.0743 23.3066 37.0308 23.4945Z" fill="#F8991D"></path><path d="M39.4317 23.3206C39.4238 23.4235 39.41 23.5264 39.3981 23.6293C39.3823 23.75 39.3664 23.8687 39.3466 23.9855C39.3288 24.0844 39.309 24.1834 39.2873 24.2803C39.2615 24.3991 39.2318 24.5158 39.2002 24.6306C39.1744 24.7236 39.1487 24.8166 39.119 24.9096C39.0834 25.0244 39.0418 25.1411 39.0003 25.2559C38.9686 25.343 38.933 25.43 38.8993 25.5151C38.8518 25.6319 38.7964 25.7446 38.7449 25.8574C38.7053 25.9366 38.6677 26.0157 38.6281 26.0949C38.5648 26.2116 38.4995 26.3244 38.4322 26.4372C38.3906 26.5065 38.351 26.5777 38.3055 26.645C38.2303 26.7637 38.1472 26.8765 38.064 26.9893C38.0225 27.0487 37.9829 27.108 37.9374 27.1634C37.8384 27.2901 37.7335 27.4108 37.6286 27.5295C37.5989 27.5651 37.5712 27.6008 37.5415 27.6344C38.543 29.5776 40.5659 30.9113 42.9035 30.9113C43.2597 30.9113 43.6101 30.8777 43.9505 30.8203C43.9426 30.7589 43.9347 30.6976 43.9248 30.6382C43.903 30.4799 43.8812 30.3256 43.8555 30.1692C43.8417 30.0822 43.8258 29.9971 43.812 29.91C43.7843 29.7537 43.7565 29.5993 43.7268 29.443C43.711 29.3619 43.6932 29.2808 43.6774 29.1996C43.6437 29.0374 43.6081 28.8771 43.5705 28.7148C43.5547 28.6436 43.5388 28.5704 43.521 28.4991C43.4775 28.3191 43.4319 28.141 43.3824 27.9629C43.3686 27.9134 43.3567 27.862 43.3429 27.8105C43.2122 27.3396 43.0677 26.8745 42.9074 26.4174C42.9074 26.4135 42.9035 26.4095 42.9035 26.4075C42.8263 26.1859 42.7451 25.9683 42.662 25.7506C42.6442 25.709 42.6283 25.6655 42.6105 25.622C42.5393 25.4439 42.468 25.2678 42.3948 25.0916C42.371 25.0362 42.3473 24.9828 42.3235 24.9294C42.2523 24.7651 42.179 24.6009 42.1038 24.4406C42.0781 24.3832 42.0524 24.3278 42.0246 24.2724C41.9475 24.1102 41.8703 23.9519 41.7891 23.7936C41.7614 23.7401 41.7357 23.6867 41.708 23.6333C41.6842 23.5858 41.6585 23.5383 41.6327 23.4928C40.9301 23.3186 40.1938 23.2276 39.4397 23.2217C39.4377 23.2553 39.4317 23.289 39.4278 23.3226L39.4317 23.3206Z" fill="#F8991D"></path><path d="M39.4317 23.3206C39.4238 23.4235 39.41 23.5264 39.3981 23.6293C39.3823 23.75 39.3664 23.8687 39.3466 23.9855C39.3288 24.0844 39.309 24.1834 39.2873 24.2803C39.2615 24.3991 39.2318 24.5158 39.2002 24.6306C39.1744 24.7236 39.1487 24.8166 39.119 24.9096C39.0834 25.0244 39.0418 25.1411 39.0003 25.2559C38.9686 25.343 38.933 25.43 38.8993 25.5151C38.8518 25.6319 38.7964 25.7446 38.7449 25.8574C38.7053 25.9366 38.6677 26.0157 38.6281 26.0949C38.5648 26.2116 38.4995 26.3244 38.4322 26.4372C38.3906 26.5065 38.351 26.5777 38.3055 26.645C38.2303 26.7637 38.1472 26.8765 38.064 26.9893C38.0225 27.0487 37.9829 27.108 37.9374 27.1634C37.8384 27.2901 37.7335 27.4108 37.6286 27.5295C37.5989 27.5651 37.5712 27.6008 37.5415 27.6344C38.543 29.5776 40.5659 30.9113 42.9035 30.9113C43.2597 30.9113 43.6101 30.8777 43.9505 30.8203C43.9426 30.7589 43.9347 30.6976 43.9248 30.6382C43.903 30.4799 43.8812 30.3256 43.8555 30.1692C43.8417 30.0822 43.8258 29.9971 43.812 29.91C43.7843 29.7537 43.7565 29.5993 43.7268 29.443C43.711 29.3619 43.6932 29.2808 43.6774 29.1996C43.6437 29.0374 43.6081 28.8771 43.5705 28.7148C43.5547 28.6436 43.5388 28.5704 43.521 28.4991C43.4775 28.3191 43.4319 28.141 43.3824 27.9629C43.3686 27.9134 43.3567 27.862 43.3429 27.8105C43.2122 27.3396 43.0677 26.8745 42.9074 26.4174C42.9074 26.4135 42.9035 26.4095 42.9035 26.4075C42.8263 26.1859 42.7451 25.9683 42.662 25.7506C42.6442 25.709 42.6283 25.6655 42.6105 25.622C42.5393 25.4439 42.468 25.2678 42.3948 25.0916C42.371 25.0362 42.3473 24.9828 42.3235 24.9294C42.2523 24.7651 42.179 24.6009 42.1038 24.4406C42.0781 24.3832 42.0524 24.3278 42.0246 24.2724C41.9475 24.1102 41.8703 23.9519 41.7891 23.7936C41.7614 23.7401 41.7357 23.6867 41.708 23.6333C41.6842 23.5858 41.6585 23.5383 41.6327 23.4928C40.9301 23.3186 40.1938 23.2276 39.4397 23.2217C39.4377 23.2553 39.4317 23.289 39.4278 23.3226L39.4317 23.3206Z" fill="#F15E22"></path><path d="M39.4415 23.2207L39.4355 23.2188C39.4355 23.2188 39.4395 23.2207 39.4415 23.2207Z" fill="#F8991D"></path><path d="M39.4415 23.2207L39.4355 23.2188C39.4355 23.2188 39.4395 23.2207 39.4415 23.2207Z" fill="#F8991D"></path><path d="M37.3553 27.2499C37.3455 27.2281 37.3375 27.2063 37.3276 27.1846C37.3375 27.2063 37.3455 27.2281 37.3553 27.2499Z" fill="#F8991D"></path><path d="M37.3553 27.2499C37.3455 27.2281 37.3375 27.2063 37.3276 27.1846C37.3375 27.2063 37.3455 27.2281 37.3553 27.2499Z" fill="#F8991D"></path><path d="M39.3962 23.6289C39.3804 23.7496 39.3645 23.8683 39.3447 23.9851C39.3665 23.8683 39.3823 23.7496 39.3962 23.6289Z" fill="#F8991D"></path><path d="M39.3962 23.6289C39.3804 23.7496 39.3645 23.8683 39.3447 23.9851C39.3665 23.8683 39.3823 23.7496 39.3962 23.6289Z" fill="#F8991D"></path><path d="M38.8975 25.5146C38.85 25.6314 38.7946 25.7442 38.7432 25.857C38.7966 25.7442 38.85 25.6314 38.8975 25.5146Z" fill="#F8991D"></path><path d="M38.8975 25.5146C38.85 25.6314 38.7946 25.7442 38.7432 25.857C38.7966 25.7442 38.85 25.6314 38.8975 25.5146Z" fill="#F8991D"></path><path d="M39.2873 24.2803C39.2616 24.399 39.2319 24.5158 39.2002 24.6305C39.2319 24.5158 39.2616 24.399 39.2873 24.2803Z" fill="#F8991D"></path><path d="M39.2873 24.2803C39.2616 24.399 39.2319 24.5158 39.2002 24.6305C39.2319 24.5158 39.2616 24.399 39.2873 24.2803Z" fill="#F8991D"></path><path d="M39.4316 23.3197C39.4356 23.286 39.4415 23.2524 39.4435 23.2188H39.4376C39.4356 23.2524 39.4356 23.286 39.4316 23.3197Z" fill="#F8991D"></path><path d="M39.4316 23.3197C39.4356 23.286 39.4415 23.2524 39.4435 23.2188H39.4376C39.4356 23.2524 39.4356 23.286 39.4316 23.3197Z" fill="#F8991D"></path><path d="M36.9064 25.5305C36.9024 25.4988 36.9004 25.4692 36.8965 25.4375C36.8985 25.4692 36.9024 25.5008 36.9064 25.5305Z" fill="#F8991D"></path><path d="M36.9064 25.5305C36.9024 25.4988 36.9004 25.4692 36.8965 25.4375C36.8985 25.4692 36.9024 25.5008 36.9064 25.5305Z" fill="#F8991D"></path><path d="M37.0032 26.1397C36.9972 26.112 36.9913 26.0863 36.9854 26.0586C36.9893 26.0863 36.9972 26.112 37.0032 26.1397Z" fill="#F8991D"></path><path d="M37.0032 26.1397C36.9972 26.112 36.9913 26.0863 36.9854 26.0586C36.9893 26.0863 36.9972 26.112 37.0032 26.1397Z" fill="#F8991D"></path><path d="M38.6261 26.0947C38.5628 26.2115 38.4975 26.3243 38.4302 26.4371C38.4975 26.3243 38.5648 26.2135 38.6261 26.0947Z" fill="#F8991D"></path><path d="M38.6261 26.0947C38.5628 26.2115 38.4975 26.3243 38.4302 26.4371C38.4975 26.3243 38.5648 26.2135 38.6261 26.0947Z" fill="#F8991D"></path><path d="M38.3035 26.6426C38.2283 26.7613 38.1451 26.8741 38.062 26.9869C38.1451 26.8741 38.2283 26.7593 38.3035 26.6426Z" fill="#F8991D"></path><path d="M38.3035 26.6426C38.2283 26.7613 38.1451 26.8741 38.062 26.9869C38.1451 26.8741 38.2283 26.7593 38.3035 26.6426Z" fill="#F8991D"></path><path d="M37.9372 27.1631C37.8382 27.2897 37.7333 27.4104 37.6284 27.5292C37.7333 27.4104 37.8382 27.2897 37.9372 27.1631Z" fill="#F8991D"></path><path d="M37.9372 27.1631C37.8382 27.2897 37.7333 27.4104 37.6284 27.5292C37.7333 27.4104 37.8382 27.2897 37.9372 27.1631Z" fill="#F8991D"></path><path d="M39.1192 24.9092C39.0836 25.0239 39.0421 25.1407 39.0005 25.2555C39.0421 25.1407 39.0836 25.0259 39.1192 24.9092Z" fill="#F8991D"></path><path d="M39.1192 24.9092C39.0836 25.0239 39.0421 25.1407 39.0005 25.2555C39.0421 25.1407 39.0836 25.0259 39.1192 24.9092Z" fill="#F8991D"></path><path d="M36.8687 24.8756C36.8687 24.6579 36.8825 24.4422 36.9063 24.2305C36.8825 24.4422 36.8687 24.6579 36.8687 24.8756Z" fill="#F8991D"></path><path d="M36.8687 24.8756C36.8687 24.6579 36.8825 24.4422 36.9063 24.2305C36.8825 24.4422 36.8687 24.6579 36.8687 24.8756Z" fill="#F8991D"></path><path d="M36.9102 24.1708C36.9339 23.969 36.9695 23.7711 37.0131 23.5752C36.9695 23.7711 36.9339 23.969 36.9102 24.1708Z" fill="#F8991D"></path><path d="M36.9102 24.1708C36.9339 23.969 36.9695 23.7711 37.0131 23.5752C36.9695 23.7711 36.9339 23.969 36.9102 24.1708Z" fill="#F8991D"></path><path d="M39.3704 23.2171H39.4357C39.4456 23.0549 39.4594 22.8906 39.4594 22.7244C39.4594 21.8557 39.307 21.0246 39.0279 20.2549C39.022 20.2588 39.0161 20.2648 39.0101 20.2687C38.6915 20.5398 38.3985 20.8426 38.1412 21.1711C38.1372 21.175 38.1333 21.179 38.1293 21.1849C38.0066 21.3432 37.8938 21.5094 37.7869 21.6796C37.777 21.6974 37.7651 21.7152 37.7533 21.733C37.6523 21.8973 37.5613 22.0675 37.4762 22.2416C37.4643 22.2673 37.4504 22.293 37.4385 22.3188C37.3574 22.4909 37.2842 22.669 37.2208 22.8491C37.2109 22.8768 37.201 22.9065 37.1911 22.9342C37.1278 23.1162 37.0744 23.3042 37.0308 23.4922C37.0308 23.4981 37.0288 23.506 37.0269 23.512C37.777 23.32 38.5628 23.2152 39.3723 23.2152L39.3704 23.2171Z" fill="#F8991D"></path><path d="M39.3704 23.2171H39.4357C39.4456 23.0549 39.4594 22.8906 39.4594 22.7244C39.4594 21.8557 39.307 21.0246 39.0279 20.2549C39.022 20.2588 39.0161 20.2648 39.0101 20.2687C38.6915 20.5398 38.3985 20.8426 38.1412 21.1711C38.1372 21.175 38.1333 21.179 38.1293 21.1849C38.0066 21.3432 37.8938 21.5094 37.7869 21.6796C37.777 21.6974 37.7651 21.7152 37.7533 21.733C37.6523 21.8973 37.5613 22.0675 37.4762 22.2416C37.4643 22.2673 37.4504 22.293 37.4385 22.3188C37.3574 22.4909 37.2842 22.669 37.2208 22.8491C37.2109 22.8768 37.201 22.9065 37.1911 22.9342C37.1278 23.1162 37.0744 23.3042 37.0308 23.4922C37.0308 23.4981 37.0288 23.506 37.0269 23.512C37.777 23.32 38.5628 23.2152 39.3723 23.2152L39.3704 23.2171Z" fill="#F15E22"></path><path d="M38.7428 25.8574C38.7032 25.9366 38.6656 26.0157 38.626 26.0949C38.6656 26.0177 38.7032 25.9386 38.7428 25.8574Z" fill="#F8991D"></path><path d="M38.7428 25.8574C38.7032 25.9366 38.6656 26.0157 38.626 26.0949C38.6656 26.0177 38.7032 25.9386 38.7428 25.8574Z" fill="#F8991D"></path><path d="M39.2003 24.6299C39.1746 24.7229 39.1488 24.8159 39.1191 24.9089C39.1488 24.8159 39.1746 24.7229 39.2003 24.6299Z" fill="#F8991D"></path><path d="M39.2003 24.6299C39.1746 24.7229 39.1488 24.8159 39.1191 24.9089C39.1488 24.8159 39.1746 24.7229 39.2003 24.6299Z" fill="#F8991D"></path><path d="M38.9984 25.2559C38.9667 25.3429 38.9311 25.43 38.8975 25.5151C38.9331 25.43 38.9667 25.3429 38.9984 25.2559Z" fill="#F8991D"></path><path d="M38.9984 25.2559C38.9667 25.3429 38.9311 25.43 38.8975 25.5151C38.9331 25.43 38.9667 25.3429 38.9984 25.2559Z" fill="#F8991D"></path><path d="M37.5396 27.6322C37.5692 27.6005 37.597 27.5649 37.6266 27.5293C37.597 27.5629 37.5692 27.5986 37.5396 27.6322Z" fill="#F8991D"></path><path d="M37.5396 27.6322C37.5692 27.6005 37.597 27.5649 37.6266 27.5293C37.597 27.5629 37.5692 27.5986 37.5396 27.6322Z" fill="#F8991D"></path><path d="M39.3445 23.9854C39.3267 24.0843 39.3069 24.1832 39.2852 24.2802C39.3049 24.1832 39.3267 24.0843 39.3445 23.9854Z" fill="#F8991D"></path><path d="M39.3445 23.9854C39.3267 24.0843 39.3069 24.1832 39.2852 24.2802C39.3049 24.1832 39.3267 24.0843 39.3445 23.9854Z" fill="#F8991D"></path><path d="M39.4316 23.3203C39.4237 23.4232 39.4098 23.5261 39.3979 23.629C39.4118 23.5281 39.4237 23.4252 39.4316 23.3203Z" fill="#F8991D"></path><path d="M39.4316 23.3203C39.4237 23.4232 39.4098 23.5261 39.3979 23.629C39.4118 23.5281 39.4237 23.4252 39.4316 23.3203Z" fill="#F8991D"></path><path d="M38.0622 26.9893C38.0207 27.0466 37.9811 27.108 37.9355 27.1634C37.9791 27.106 38.0187 27.0486 38.0622 26.9893Z" fill="#F8991D"></path><path d="M38.0622 26.9893C38.0207 27.0466 37.9811 27.108 37.9355 27.1634C37.9791 27.106 38.0187 27.0486 38.0622 26.9893Z" fill="#F8991D"></path><path d="M38.4304 26.4346C38.3888 26.5038 38.3492 26.5751 38.3037 26.6423C38.3473 26.5731 38.3888 26.5038 38.4304 26.4346Z" fill="#F8991D"></path><path d="M38.4304 26.4346C38.3888 26.5038 38.3492 26.5751 38.3037 26.6423C38.3473 26.5731 38.3888 26.5038 38.4304 26.4346Z" fill="#F8991D"></path><path d="M39.4359 23.2168H39.3706C39.3924 23.2168 39.4141 23.2188 39.4359 23.2188V23.2168Z" fill="#F8991D"></path><path d="M39.4359 23.2168H39.3706C39.3924 23.2168 39.4141 23.2188 39.4359 23.2188V23.2168Z" fill="#F8991D"></path><path d="M37.6287 27.5286C37.7336 27.4099 37.8385 27.2892 37.9375 27.1625C37.981 27.1051 38.0206 27.0458 38.0642 26.9884C38.1473 26.8756 38.2304 26.7608 38.3056 26.6441C38.3492 26.5748 38.3907 26.5056 38.4323 26.4363C38.4996 26.3235 38.5669 26.2127 38.6283 26.094C38.6678 26.0168 38.7055 25.9376 38.745 25.8565C38.7985 25.7437 38.8519 25.6309 38.8994 25.5142C38.9351 25.4291 38.9687 25.342 39.0004 25.255C39.0419 25.1402 39.0835 25.0254 39.1191 24.9087C39.1488 24.8157 39.1745 24.7227 39.2003 24.6297C39.2319 24.5149 39.2616 24.3981 39.2874 24.2794C39.3072 24.1824 39.3289 24.0835 39.3467 23.9846C39.3685 23.8678 39.3844 23.7491 39.3982 23.6284C39.4121 23.5275 39.4239 23.4246 39.4319 23.3197C39.4358 23.2861 39.4358 23.2524 39.4378 23.2188C39.416 23.2188 39.3943 23.2168 39.3725 23.2168C38.5629 23.2168 37.7772 23.3217 37.027 23.5136C37.023 23.5334 37.0171 23.5552 37.0131 23.575C36.9696 23.7709 36.934 23.9687 36.9102 24.1706C36.9102 24.1904 36.9082 24.2102 36.9063 24.2299C36.8825 24.4417 36.8687 24.6574 36.8687 24.875C36.8687 25.063 36.8805 25.251 36.8983 25.435C36.9003 25.4667 36.9043 25.4984 36.9082 25.528C36.9261 25.7061 36.9538 25.8822 36.9874 26.0564C36.9914 26.0841 36.9993 26.1098 37.0052 26.1375C37.0824 26.4996 37.1913 26.8459 37.3298 27.1823C37.3397 27.2041 37.3476 27.2258 37.3575 27.2476C37.413 27.3782 37.4783 27.5049 37.5416 27.6295C37.5713 27.5959 37.599 27.5603 37.6287 27.5266V27.5286Z" fill="#F8991D"></path><path d="M37.6287 27.5286C37.7336 27.4099 37.8385 27.2892 37.9375 27.1625C37.981 27.1051 38.0206 27.0458 38.0642 26.9884C38.1473 26.8756 38.2304 26.7608 38.3056 26.6441C38.3492 26.5748 38.3907 26.5056 38.4323 26.4363C38.4996 26.3235 38.5669 26.2127 38.6283 26.094C38.6678 26.0168 38.7055 25.9376 38.745 25.8565C38.7985 25.7437 38.8519 25.6309 38.8994 25.5142C38.9351 25.4291 38.9687 25.342 39.0004 25.255C39.0419 25.1402 39.0835 25.0254 39.1191 24.9087C39.1488 24.8157 39.1745 24.7227 39.2003 24.6297C39.2319 24.5149 39.2616 24.3981 39.2874 24.2794C39.3072 24.1824 39.3289 24.0835 39.3467 23.9846C39.3685 23.8678 39.3844 23.7491 39.3982 23.6284C39.4121 23.5275 39.4239 23.4246 39.4319 23.3197C39.4358 23.2861 39.4358 23.2524 39.4378 23.2188C39.416 23.2188 39.3943 23.2168 39.3725 23.2168C38.5629 23.2168 37.7772 23.3217 37.027 23.5136C37.023 23.5334 37.0171 23.5552 37.0131 23.575C36.9696 23.7709 36.934 23.9687 36.9102 24.1706C36.9102 24.1904 36.9082 24.2102 36.9063 24.2299C36.8825 24.4417 36.8687 24.6574 36.8687 24.875C36.8687 25.063 36.8805 25.251 36.8983 25.435C36.9003 25.4667 36.9043 25.4984 36.9082 25.528C36.9261 25.7061 36.9538 25.8822 36.9874 26.0564C36.9914 26.0841 36.9993 26.1098 37.0052 26.1375C37.0824 26.4996 37.1913 26.8459 37.3298 27.1823C37.3397 27.2041 37.3476 27.2258 37.3575 27.2476C37.413 27.3782 37.4783 27.5049 37.5416 27.6295C37.5713 27.5959 37.599 27.5603 37.6287 27.5266V27.5286Z" fill="#EF4023"></path><path d="M19.5417 14.1683C19.4031 13.0305 18.7717 12.045 17.8632 11.4355C17.8434 11.5602 17.8296 11.6869 17.8296 11.8175C17.8296 12.9157 18.5481 13.8457 19.5397 14.1683H19.5417Z" fill="#246C36"></path></g></g><defs><clipPath id="clip0_3980_14541"><rect width="197.931" height="56" fill="white"></rect></clipPath><clipPath id="clip1_3980_14541"><rect width="44.1386" height="55.7625" fill="white"></rect></clipPath></defs></svg>