<svg xmlns="http://www.w3.org/2000/svg" width="81" height="57" viewBox="0 0 81 57" fill="none"><path d="M3.1003 40.7041C2.16906 40.1905 1.44244 39.4638 0.928802 38.5326C0.415159 37.6014 0.15625 36.5407 0.15625 35.3589C0.15625 33.701 0.527911 32.2102 1.27541 30.8781C2.01873 29.5501 3.05019 28.5061 4.36562 27.7545C5.68104 27.0028 7.15516 26.627 8.78378 26.627C10.024 26.627 11.1098 26.8859 12.041 27.3995C12.9723 27.9131 13.6989 28.6356 14.2125 29.5627C14.7262 30.4897 14.9851 31.5421 14.9851 32.728C14.9851 34.3859 14.6134 35.8809 13.8659 37.2172C13.1226 38.5535 12.0911 39.5975 10.7757 40.3492C9.46029 41.1008 7.982 41.4767 6.33667 41.4767C5.11311 41.4767 4.03154 41.2219 3.1003 40.7041ZM9.71084 38.4491C10.5961 37.8645 11.2852 37.0794 11.7779 36.098C12.2707 35.1167 12.5213 34.0476 12.5213 32.8909C12.5213 31.6256 12.1621 30.6233 11.4439 29.8925C10.7256 29.1618 9.72755 28.7943 8.44553 28.7943C7.30549 28.7943 6.29073 29.0824 5.40543 29.6629C4.52013 30.2392 3.83527 31.0159 3.34668 31.9931C2.8581 32.9661 2.61589 34.0393 2.61589 35.2086C2.61589 36.478 2.97502 37.4803 3.69329 38.2152C4.41155 38.9544 5.40125 39.3219 6.67075 39.3219C7.81496 39.326 8.82554 39.0337 9.71084 38.4491Z" fill="#0B3D05"></path><path d="M21.1364 30.2184C21.7837 29.8301 22.5061 29.6338 23.2995 29.6338L22.8611 32.0976H22.2556C21.3368 32.0976 20.5977 32.3273 20.0423 32.7866C19.4869 33.246 19.0944 34.0394 18.873 35.1669L17.7873 41.3306H15.407L17.4323 29.8217H19.8126L19.4577 31.847C19.9295 31.1538 20.4891 30.611 21.1364 30.2184Z" fill="#0B3D05"></path><path d="M31.789 30.1681C32.4238 30.5231 32.879 30.9657 33.1587 31.4961L33.4511 29.8257H35.8522L33.806 41.5226C33.6097 42.5791 33.2214 43.5228 32.6367 44.3539C32.0521 45.1807 31.2921 45.8321 30.3608 46.3082C29.4296 46.7801 28.3773 47.0181 27.208 47.0181C26.1932 47.0181 25.2996 46.8553 24.5354 46.5295C23.7712 46.2038 23.1907 45.7319 22.8024 45.1181C22.414 44.5042 22.247 43.7817 22.3012 42.9466H24.6607C24.7317 43.5437 25.0281 44.0281 25.5585 44.3998C26.0888 44.7673 26.7612 44.9552 27.5838 44.9552C28.5443 44.9552 29.3711 44.6629 30.0685 44.0782C30.7659 43.4936 31.2086 42.6459 31.4048 41.5309L31.7389 39.61C31.2378 40.1528 30.6114 40.608 29.8597 40.9797C29.1081 41.3472 28.2937 41.5351 27.4168 41.5351C26.5398 41.5351 25.7589 41.3388 25.0783 40.9504C24.3976 40.5621 23.8631 40.0067 23.4789 39.2884C23.0947 38.5701 22.9026 37.7475 22.9026 36.8121C22.9026 36.3945 22.9443 35.9685 23.0279 35.5384C23.2367 34.3817 23.6584 33.3585 24.2932 32.4691C24.9279 31.5796 25.7047 30.8864 26.6234 30.3894C27.5421 29.8967 28.5025 29.6461 29.5048 29.6461C30.3943 29.6336 31.1543 29.8132 31.789 30.1681ZM32.5323 34.7116C32.5323 33.7803 32.2567 33.0454 31.7055 32.5067C31.1543 31.9721 30.4694 31.7007 29.6468 31.7007C29.0329 31.7007 28.4357 31.851 27.8511 32.1517C27.2665 32.4524 26.757 32.8908 26.3269 33.4671C25.8967 34.0434 25.6086 34.7324 25.4708 35.5259C25.4165 35.789 25.3873 36.0771 25.3873 36.3819C25.3873 37.3299 25.6629 38.0774 26.2141 38.6286C26.7653 39.1798 27.4502 39.4555 28.2729 39.4555C28.8867 39.4555 29.4839 39.3009 30.0685 38.9961C30.6532 38.6912 31.1626 38.2402 31.5928 37.6473C32.0229 37.0543 32.311 36.3611 32.4488 35.5676C32.5031 35.3045 32.5323 35.0164 32.5323 34.7116Z" fill="#0B3D05"></path><path d="M37.8276 32.4567C38.4624 31.5673 39.2391 30.874 40.1578 30.3771C41.0765 29.8843 42.037 29.6338 43.0392 29.6338C43.9454 29.6338 44.7013 29.8134 45.3151 30.1683C45.929 30.5233 46.3883 30.9659 46.6932 31.4963L46.9855 29.8259H49.3867L47.3613 41.3348H44.9602L45.2734 39.6227C44.7723 40.1656 44.1417 40.6166 43.3817 40.9799C42.6216 41.3432 41.799 41.5227 40.9053 41.5227C40.0409 41.5227 39.2725 41.3265 38.596 40.9381C37.9195 40.5497 37.3933 39.9943 37.0091 39.2761C36.625 38.5578 36.4329 37.7352 36.4329 36.7997C36.4329 36.3821 36.4746 35.9562 36.5581 35.5261C36.7711 34.3693 37.1929 33.3462 37.8276 32.4567ZM46.0668 34.7118C46.0668 33.7805 45.7912 33.0455 45.24 32.5069C44.6887 31.9723 44.0039 31.7009 43.1812 31.7009C42.5673 31.7009 41.9702 31.8512 41.3856 32.1519C40.8009 32.4526 40.2914 32.891 39.8613 33.4673C39.4312 34.0436 39.1431 34.7326 39.0053 35.5261C38.951 35.7892 38.9217 36.0773 38.9217 36.3821C38.9217 37.3301 39.1973 38.0776 39.7486 38.6288C40.2998 39.18 40.9847 39.4556 41.8073 39.4556C42.4212 39.4556 43.0183 39.3011 43.603 38.9963C44.1876 38.6914 44.6971 38.2404 45.1272 37.6475C45.5573 37.0545 45.8455 36.3613 45.9833 35.5678C46.0376 35.3047 46.0668 35.0166 46.0668 34.7118Z" fill="#0B3D05"></path><path d="M60.6367 30.6066C61.355 31.2538 61.7141 32.1851 61.7141 33.3961C61.7141 33.7009 61.6807 34.0851 61.6097 34.5445L60.3987 41.3346H58.0393L59.1877 34.8994C59.242 34.5111 59.2712 34.2313 59.2712 34.0643C59.2712 33.3001 59.0582 32.7154 58.6323 32.3104C58.2063 31.9053 57.6175 31.7048 56.8658 31.7048C55.9597 31.7048 55.1996 31.9805 54.5774 32.5317C53.9594 33.0829 53.5627 33.8722 53.3956 34.9036V34.841L52.2472 41.3388H49.8669L51.8923 29.8298H54.2726L54.0429 31.1661C54.5148 30.6943 55.0785 30.3184 55.7258 30.047C56.3731 29.7755 57.0454 29.6377 57.7428 29.6377C58.9538 29.6336 59.9185 29.9593 60.6367 30.6066Z" fill="#0B3D05"></path><path d="M67.2054 29.8215L65.1801 41.3304H62.7998L64.8251 29.8215H67.2054ZM65.3889 27.9423C65.1509 27.7043 65.0339 27.4078 65.0339 27.0445C65.0339 26.5559 65.2177 26.1341 65.5893 25.7792C65.961 25.4242 66.3786 25.2446 66.8547 25.2446C67.2305 25.2446 67.5353 25.3616 67.765 25.5996C67.9947 25.8376 68.1116 26.1341 68.1116 26.4974C68.1116 26.986 67.9321 27.4078 67.5687 27.7627C67.2054 28.1177 66.7878 28.2973 66.316 28.2973C65.9318 28.2973 65.6269 28.1803 65.3889 27.9423Z" fill="#0B3D05"></path><path d="M69.1806 32.4442C69.8154 31.5464 70.6005 30.8532 71.54 30.3646C72.4796 29.876 73.4986 29.6338 74.601 29.6338C75.9916 29.6338 77.0857 29.9637 77.8792 30.6277C78.6726 31.2875 79.1236 32.2312 79.2363 33.459H76.6681C76.5554 32.8869 76.3006 32.4442 75.8956 32.1227C75.4905 31.8011 74.9435 31.6424 74.2461 31.6424C73.2731 31.6424 72.4337 31.989 71.7405 32.6781C71.0431 33.3671 70.5838 34.3317 70.3624 35.572C70.2914 36.0188 70.258 36.378 70.258 36.6577C70.258 37.5765 70.4877 38.2822 70.9471 38.7791C71.4064 39.2719 72.0453 39.5225 72.868 39.5225C74.2461 39.5225 75.265 38.9169 75.9165 37.7059H78.4847C77.9418 38.8752 77.1525 39.8064 76.1127 40.4955C75.0771 41.1845 73.8744 41.5311 72.5089 41.5311C71.0598 41.5311 69.9114 41.1177 69.0637 40.2867C68.2118 39.4598 67.79 38.3323 67.79 36.9125C67.79 36.4824 67.8318 36.0355 67.9153 35.5762C68.1241 34.3819 68.5459 33.342 69.1806 32.4442Z" fill="#0B3D05"></path><path d="M27.1163 22.9313H22.3724L21.1488 25.2448H19.207L25.2705 13.8945H27.4211L29.4757 25.2448H27.5172L27.1163 22.9313ZM26.8699 21.4822L25.9387 16.1495L23.1324 21.4822H26.8699Z" fill="#0B3D05"></path><path d="M33.3258 23.6328H38.5917L38.2994 25.2489H30.8328L31.0917 23.7956L37.7941 15.5272H32.5449L32.8372 13.9111H40.3038L40.0449 15.3644L33.3258 23.6328Z" fill="#0B3D05"></path><path d="M50.6394 21.4862C50.6728 21.5155 50.6519 21.5739 50.606 21.5739C46.2547 21.5029 40.7549 17.6402 43.1519 9.81024C43.1519 9.81024 50.155 10.9628 50.3304 20.2668C50.3304 20.3253 50.2594 20.3629 50.2135 20.3211C49.6288 19.7908 47.0356 17.2936 44.7179 11.9859C44.7179 11.9817 45.1063 16.6254 50.6394 21.4862ZM53.6795 22.0374C53.6252 22.0667 53.6294 22.146 53.6879 22.1586C54.4771 22.3715 58.106 23.2527 64.2238 22.4968C64.2238 22.4968 59.6929 24.4971 52.385 22.3924C52.339 22.3799 52.2973 22.4258 52.3223 22.4634C54.5606 25.9963 60.9206 28.5728 67.0384 22.6973C67.0384 22.6973 62.4616 17.5316 53.6795 22.0374ZM61.5637 4.54435C61.4092 5.57582 59.3505 9.61397 57.5172 12.2741C55.684 14.93 52.8443 20.8807 52.8443 20.8807C52.8443 20.8807 57.1706 20.9768 61.7391 18.0912C66.6083 15.0177 65.8023 5.83055 65.1216 2.59418C64.441 -0.646361 62.8249 -0.220413 60.1731 1.10337C57.5172 2.42714 52.907 4.98283 51.27 8.62427C48.944 13.8192 51.5289 20.2668 51.5289 20.2668C52.0676 18.6633 55.4209 13.6563 56.277 12.5914C57.133 11.5307 61.5637 4.54435 61.5637 4.54435Z" fill="url(#paint0_linear_13_2699)"></path><path d="M80.5435 39.2759C80.5435 39.2759 80.5435 50.029 64.1821 46.8761C48.9816 43.9446 37.9989 41.9736 23.7922 55.7751C23.7922 55.7751 32.8415 44.2035 44.1292 43.3224C56.9661 42.316 63.7019 46.304 72.0622 45.5649C79.5789 44.9009 80.5435 39.2759 80.5435 39.2759Z" fill="url(#paint1_linear_13_2699)"></path><path d="M41.4272 52.4177C41.2058 52.7309 40.8968 52.9814 40.5043 53.1735C40.1117 53.3656 39.644 53.4617 39.097 53.4617H37.9778L37.5268 56.0215H36.178L37.3639 49.3525H39.8194C40.5001 49.3525 41.0179 49.5029 41.3687 49.8077C41.7195 50.1084 41.8949 50.5135 41.8949 51.0146C41.8949 51.1607 41.8823 51.2944 41.8573 51.4155C41.7946 51.7704 41.6527 52.1045 41.4272 52.4177ZM40.0909 52.1421C40.2996 51.9625 40.4333 51.7203 40.4917 51.4155C40.5043 51.357 40.5126 51.2735 40.5126 51.1691C40.5126 50.6638 40.1994 50.4132 39.5772 50.4132H38.5249L38.1699 52.4093H39.2306C39.5939 52.4093 39.8821 52.3175 40.0909 52.1421Z" fill="#0B3D05"></path><path d="M44.9142 50.9181C45.219 50.7386 45.5489 50.6509 45.908 50.6509L45.6617 52.054H45.3067C44.91 52.054 44.5968 52.1417 44.3546 52.3129C44.1166 52.4841 43.9412 52.7764 43.8326 53.1899L43.3356 56.017H41.9868L42.9222 50.726H44.2711L44.1082 51.6615C44.3421 51.3441 44.6093 51.0977 44.9142 50.9181Z" fill="#0B3D05"></path><path d="M47.0228 55.8291C46.6762 55.6454 46.4048 55.3823 46.2169 55.044C46.0248 54.7058 45.9287 54.3174 45.9287 53.8789C45.9287 53.2818 46.0707 52.7347 46.3547 52.242C46.6386 51.7492 47.027 51.3567 47.5198 51.0727C48.0125 50.7846 48.5637 50.6426 49.1693 50.6426C49.6203 50.6426 50.0253 50.7386 50.3761 50.9224C50.7311 51.1103 51.0025 51.3734 51.1988 51.7116C51.395 52.0499 51.4911 52.4382 51.4911 52.8767C51.4911 53.4822 51.3491 54.0293 51.061 54.5179C50.7728 55.0065 50.3803 55.3948 49.8833 55.6788C49.3822 55.9627 48.831 56.1047 48.2255 56.1047C47.7661 56.1047 47.3694 56.0129 47.0228 55.8291ZM49.2695 54.6807C49.5284 54.497 49.733 54.2506 49.8792 53.9458C50.0253 53.6409 50.1005 53.3194 50.1005 52.9811C50.1005 52.5969 49.9919 52.3046 49.7789 52.0958C49.566 51.887 49.2945 51.7868 48.973 51.7868C48.6473 51.7868 48.3591 51.8787 48.1086 52.0624C47.858 52.2462 47.6617 52.4925 47.5198 52.8015C47.382 53.1106 47.311 53.4363 47.311 53.7787C47.311 54.1546 47.4112 54.4427 47.6116 54.6473C47.8121 54.8519 48.0752 54.9522 48.4009 54.9522C48.7183 54.9605 49.0106 54.8686 49.2695 54.6807Z" fill="#0B3D05"></path><path d="M52.6479 51.9289C52.9319 51.5155 53.2785 51.1981 53.6877 50.9726C54.097 50.7513 54.5313 50.6385 54.9823 50.6385C55.3247 50.6385 55.6421 50.7137 55.9261 50.864C56.21 51.0144 56.4272 51.2106 56.565 51.4612L57.0118 48.9473H58.3606L57.1079 56.0172H55.759L55.901 55.2321C55.6922 55.4952 55.4208 55.704 55.095 55.8627C54.7651 56.0213 54.406 56.1007 54.0093 56.1007C53.6209 56.1007 53.2743 56.013 52.9737 55.8376C52.673 55.6622 52.435 55.4158 52.2679 55.0943C52.1009 54.7727 52.0132 54.3969 52.0132 53.9709C52.0132 53.7747 52.0299 53.5659 52.0716 53.3487C52.176 52.8184 52.364 52.3465 52.6479 51.9289ZM56.2727 53.0105C56.2727 52.6346 56.1641 52.3423 55.9428 52.1335C55.7214 51.9247 55.4458 51.8203 55.1159 51.8203C54.8695 51.8203 54.6273 51.883 54.3935 51.9999C54.1596 52.121 53.9592 52.2964 53.788 52.5302C53.6168 52.7641 53.4998 53.0397 53.4455 53.3571C53.4247 53.4782 53.4163 53.5909 53.4163 53.6995C53.4163 54.0837 53.5249 54.3844 53.742 54.6015C53.9592 54.8228 54.2306 54.9314 54.5647 54.9314C54.8111 54.9314 55.0533 54.8688 55.2913 54.7435C55.5252 54.6182 55.7298 54.4387 55.8968 54.2048C56.0639 53.9709 56.1766 53.6912 56.2351 53.3738C56.2601 53.2067 56.2727 53.0856 56.2727 53.0105Z" fill="#0B3D05"></path><path d="M64.3531 50.7261L63.4177 56.017H62.0814L62.1941 55.3489C61.9895 55.5785 61.7389 55.7581 61.4383 55.8876C61.1376 56.017 60.8244 56.0838 60.4945 56.0838C59.9475 56.0838 59.5132 55.9377 59.1958 55.6412C58.8784 55.3447 58.7197 54.9229 58.7197 54.3759C58.7197 54.1712 58.7364 53.9917 58.7657 53.833L59.3085 50.7303H60.6448L60.127 53.6451C60.1061 53.7578 60.0978 53.8706 60.0978 53.9792C60.0978 54.2923 60.1855 54.5304 60.3567 54.7016C60.5279 54.8686 60.7701 54.9563 61.0833 54.9563C61.4466 54.9563 61.7557 54.8436 62.0104 54.6181C62.2651 54.3926 62.428 54.0668 62.499 53.6492L63.0168 50.7344H64.3531V50.7261Z" fill="#0B3D05"></path><path d="M65.4514 51.9371C65.7437 51.5279 66.107 51.2063 66.5455 50.9808C66.984 50.7553 67.4559 50.6426 67.9653 50.6426C68.6209 50.6426 69.1346 50.8054 69.5063 51.1312C69.8779 51.4569 70.0867 51.9162 70.1326 52.5176H68.6919C68.6544 52.2879 68.5541 52.1083 68.3954 51.9789C68.2368 51.8494 68.0238 51.7826 67.7565 51.7826C67.3723 51.7826 67.0466 51.9204 66.7794 52.2002C66.5079 52.4758 66.3283 52.8684 66.2406 53.382C66.2072 53.5616 66.1947 53.7119 66.1947 53.8414C66.1947 54.2047 66.2824 54.4845 66.462 54.6766C66.6415 54.8728 66.8879 54.9689 67.2053 54.9689C67.7398 54.9689 68.1365 54.7267 68.3913 54.2423H69.832C69.5856 54.8144 69.2139 55.2695 68.717 55.6078C68.2242 55.946 67.6563 56.1131 67.0132 56.1131C66.345 56.1131 65.8105 55.9252 65.4138 55.5452C65.0171 55.1651 64.8167 54.6515 64.8167 54.0042C64.8167 53.808 64.8334 53.5992 64.8751 53.382C64.967 52.8266 65.1591 52.3464 65.4514 51.9371Z" fill="#0B3D05"></path><path d="M72.3416 54.3844C72.3333 54.422 72.3333 54.4721 72.3333 54.5389C72.3333 54.6684 72.3709 54.7561 72.4419 54.8104C72.517 54.8647 72.6381 54.8897 72.8093 54.8897H73.4399L73.2395 56.0172H72.3876C71.4313 56.0172 70.9552 55.6205 70.9552 54.8229C70.9552 54.6684 70.9677 54.5222 70.9928 54.3719L71.4438 51.8204H70.8132L71.0053 50.7221H71.6442L71.8739 49.415H73.2228L72.9931 50.7221H74.1665L73.9744 51.8246H72.7885L72.3416 54.3844Z" fill="#0B3D05"></path><path d="M75.2108 55.9087C74.8976 55.7793 74.6471 55.5955 74.4675 55.3659C74.2879 55.132 74.196 54.8689 74.196 54.5683C74.196 54.5223 74.2044 54.4513 74.2169 54.3469H75.5156C75.4948 54.5682 75.5616 54.7478 75.7161 54.8856C75.8706 55.0234 76.0836 55.0902 76.3675 55.0902C76.6223 55.0902 76.8353 55.0443 77.0023 54.9524C77.1693 54.8606 77.257 54.7269 77.257 54.5474C77.257 54.3887 77.1777 54.2592 77.0232 54.1632C76.8687 54.0671 76.6223 53.9586 76.284 53.8375C75.9458 53.7164 75.666 53.5994 75.4447 53.4825C75.2233 53.3697 75.0312 53.2069 74.8726 53.0064C74.7139 52.8018 74.6345 52.5429 74.6345 52.2339C74.6345 51.9249 74.7264 51.6451 74.906 51.4029C75.0855 51.1607 75.3403 50.9727 75.666 50.8391C75.9917 50.7055 76.3634 50.6387 76.7851 50.6387C77.186 50.6387 77.541 50.7055 77.8458 50.8391C78.1507 50.9727 78.3887 51.1607 78.5557 51.3987C78.7228 51.6367 78.8105 51.9082 78.8105 52.2172C78.8105 52.2924 78.8063 52.3508 78.8021 52.3884H77.5619C77.5827 52.1671 77.5159 51.9875 77.3698 51.8539C77.2236 51.7202 77.0106 51.6534 76.7309 51.6534C76.5012 51.6534 76.3133 51.7035 76.1671 51.7996C76.0209 51.8998 75.9458 52.0293 75.9458 52.1963C75.9458 52.3633 76.0293 52.497 76.1922 52.6014C76.355 52.7058 76.6139 52.8227 76.9564 52.948C77.2988 53.0816 77.5744 53.2027 77.7832 53.3155C77.992 53.4282 78.1716 53.5785 78.3219 53.7748C78.4764 53.9711 78.5516 54.2133 78.5516 54.5056C78.5516 54.8313 78.4513 55.1153 78.2551 55.3575C78.0588 55.5997 77.7874 55.7834 77.4449 55.9129C77.1025 56.0424 76.7142 56.105 76.2799 56.105C75.879 56.105 75.5282 56.0382 75.2108 55.9087Z" fill="#0B3D05"></path><defs><linearGradient id="paint0_linear_13_2699" x1="51.2246" y1="22.998" x2="64.1129" y2="0.555044" gradientUnits="userSpaceOnUse"><stop stop-color="#00C64C"></stop><stop offset="0.2169" stop-color="#00C249"></stop><stop offset="0.4258" stop-color="#01B742"></stop><stop offset="0.6315" stop-color="#02A335"></stop><stop offset="0.8339" stop-color="#038823"></stop><stop offset="1" stop-color="#056C10"></stop></linearGradient><linearGradient id="paint1_linear_13_2699" x1="23.789" y1="47.5281" x2="80.5416" y2="47.5281" gradientUnits="userSpaceOnUse"><stop stop-color="#00C64C"></stop><stop offset="0.2169" stop-color="#00C249"></stop><stop offset="0.4258" stop-color="#01B742"></stop><stop offset="0.6315" stop-color="#02A335"></stop><stop offset="0.8339" stop-color="#038823"></stop><stop offset="1" stop-color="#056C10"></stop></linearGradient></defs></svg>